<svg xmlns="http://www.w3.org/2000/svg" version="1.1" width="512px" height="512px" style="shape-rendering:geometricPrecision; text-rendering:geometricPrecision; image-rendering:optimizeQuality; fill-rule:evenodd; clip-rule:evenodd" xmlns:xlink="http://www.w3.org/1999/xlink">
<g><path style="opacity:1" fill="#fed300" d="M 165.5,-0.5 C 175.5,-0.5 185.5,-0.5 195.5,-0.5C 195.5,9.5 195.5,19.5 195.5,29.5C 185.5,29.5 175.5,29.5 165.5,29.5C 165.5,19.5 165.5,9.5 165.5,-0.5 Z"/></g>
<g><path style="opacity:1" fill="#fed300" d="M 75.5,64.5 C 85.5,64.5 95.5,64.5 105.5,64.5C 105.5,74.5 105.5,84.5 105.5,94.5C 95.5,94.5 85.5,94.5 75.5,94.5C 75.5,84.5 75.5,74.5 75.5,64.5 Z"/></g>
<g><path style="opacity:1" fill="#feb554" d="M 365.5,64.5 C 375.5,64.5 385.5,64.5 395.5,64.5C 395.5,74.5 395.5,84.5 395.5,94.5C 385.5,94.5 375.5,94.5 365.5,94.5C 365.5,84.5 365.5,74.5 365.5,64.5 Z"/></g>
<g><path style="opacity:0.991" fill="#b30042" d="M 275.5,360.5 C 272.167,360.5 268.833,360.5 265.5,360.5C 264.508,360.672 263.842,360.338 263.5,359.5C 287.313,353.007 299.646,337.34 300.5,312.5C 300.11,304.163 297.61,296.496 293,289.5C 280.637,269.659 268.137,249.993 255.5,230.5C 255.167,230.5 254.833,230.5 254.5,230.5C 255.495,183.239 255.828,135.905 255.5,88.5C 260.746,85.0448 266.413,82.3782 272.5,80.5C 270.655,125.317 288.655,159.483 326.5,183C 342.718,191.887 360.051,196.721 378.5,197.5C 379.666,216.158 379.833,234.824 379,253.5C 373.964,300.868 349.464,333.701 305.5,352C 295.633,355.796 285.633,358.629 275.5,360.5 Z"/></g>
<g><path style="opacity:0.992" fill="#d0004f" d="M 255.5,88.5 C 255.828,135.905 255.495,183.239 254.5,230.5C 241.928,251.306 229.095,271.973 216,292.5C 205.967,316.866 211.467,337.032 232.5,353C 237.525,356.015 242.858,358.182 248.5,359.5C 247.081,360.451 245.415,360.784 243.5,360.5C 197.099,351.206 163.599,325.206 143,282.5C 125.568,239.424 128.401,197.758 151.5,157.5C 152.723,156.386 154.056,156.219 155.5,157C 170.297,162.544 185.297,167.377 200.5,171.5C 206.657,135.455 224.99,107.789 255.5,88.5 Z"/></g>
<g><path style="opacity:1" fill="#fed200" d="M 254.5,230.5 C 254.833,230.5 255.167,230.5 255.5,230.5C 255.5,273.833 255.5,317.167 255.5,360.5C 253.097,360.552 250.764,360.219 248.5,359.5C 242.858,358.182 237.525,356.015 232.5,353C 211.467,337.032 205.967,316.866 216,292.5C 229.095,271.973 241.928,251.306 254.5,230.5 Z"/></g>
<g><path style="opacity:1" fill="#feb454" d="M 255.5,230.5 C 268.137,249.993 280.637,269.659 293,289.5C 297.61,296.496 300.11,304.163 300.5,312.5C 299.646,337.34 287.313,353.007 263.5,359.5C 260.904,360.265 258.237,360.599 255.5,360.5C 255.5,317.167 255.5,273.833 255.5,230.5 Z"/></g>
<g><path style="opacity:0.993" fill="#9d5015" d="M 248.5,359.5 C 250.764,360.219 253.097,360.552 255.5,360.5C 258.237,360.599 260.904,360.265 263.5,359.5C 263.842,360.338 264.508,360.672 265.5,360.5C 262.375,361.479 259.042,361.813 255.5,361.5C 255.5,386.5 255.5,411.5 255.5,436.5C 203.833,436.5 152.167,436.5 100.5,436.5C 72.1667,436.5 43.8333,436.5 15.5,436.5C 15.5,411.167 15.5,385.833 15.5,360.5C 91.5,360.5 167.5,360.5 243.5,360.5C 245.415,360.784 247.081,360.451 248.5,359.5 Z"/></g>
<g><path style="opacity:0.994" fill="#804111" d="M 265.5,360.5 C 268.833,360.5 272.167,360.5 275.5,360.5C 320.5,360.5 365.5,360.5 410.5,360.5C 410.5,385.5 410.5,410.5 410.5,435.5C 359.003,436.499 307.336,436.832 255.5,436.5C 255.5,411.5 255.5,386.5 255.5,361.5C 259.042,361.813 262.375,361.479 265.5,360.5 Z"/></g>
<g><path style="opacity:1" fill="#804111" d="M 100.5,436.5 C 152.167,436.5 203.833,436.5 255.5,436.5C 255.5,461.5 255.5,486.5 255.5,511.5C 203.833,511.5 152.167,511.5 100.5,511.5C 100.5,486.5 100.5,461.5 100.5,436.5 Z"/></g>
<g><path style="opacity:0.999" fill="#71390f" d="M 410.5,435.5 C 438.833,435.5 467.167,435.5 495.5,435.5C 495.5,460.833 495.5,486.167 495.5,511.5C 415.5,511.5 335.5,511.5 255.5,511.5C 255.5,486.5 255.5,461.5 255.5,436.5C 307.336,436.832 359.003,436.499 410.5,435.5 Z"/></g>
</svg>
