<svg xmlns="http://www.w3.org/2000/svg" version="1.1" width="512px" height="512px" style="shape-rendering:geometricPrecision; text-rendering:geometricPrecision; image-rendering:optimizeQuality; fill-rule:evenodd; clip-rule:evenodd" xmlns:xlink="http://www.w3.org/1999/xlink">
<g><path style="opacity:0.97" fill="#495959" d="M 78.5,56.5 C 68.8333,56.5 59.1667,56.5 49.5,56.5C 41.7434,43.951 30.4101,37.6176 15.5,37.5C 15.5,28.1667 15.5,18.8333 15.5,9.5C 47.2965,10.8804 68.2965,26.5471 78.5,56.5 Z"/></g>
<g><path style="opacity:0.997" fill="#fe9d22" d="M 49.5,56.5 C 59.1667,56.5 68.8333,56.5 78.5,56.5C 101.833,56.5 125.167,56.5 148.5,56.5C 148.5,109.167 148.5,161.833 148.5,214.5C 115.329,214.832 82.3291,214.498 49.5,213.5C 49.5,161.167 49.5,108.833 49.5,56.5 Z"/></g>
<g><path style="opacity:0.998" fill="#804111" d="M 148.5,56.5 C 182.167,56.5 215.833,56.5 249.5,56.5C 248.952,89.4973 248.619,122.497 248.5,155.5C 226.5,155.5 204.5,155.5 182.5,155.5C 182.5,165.5 182.5,175.5 182.5,185.5C 204.5,185.5 226.5,185.5 248.5,185.5C 247.787,198.018 248.787,210.351 251.5,222.5C 233.526,230.485 215.526,238.485 197.5,246.5C 196.628,248.466 196.795,250.466 198,252.5C 200.847,260.242 204.347,267.575 208.5,274.5C 228.407,265.708 248.074,256.708 267.5,247.5C 273.742,254.286 280.409,260.62 287.5,266.5C 278.181,287.807 268.848,309.141 259.5,330.5C 267.347,334.59 275.347,338.423 283.5,342C 284.944,342.781 286.277,342.614 287.5,341.5C 295.846,322.145 304.179,302.812 312.5,283.5C 329.421,292.624 347.088,300.124 365.5,306C 375.656,309.122 385.989,311.456 396.5,313C 416.698,312.658 436.365,315.658 455.5,322C 487.041,335.364 505.708,358.864 511.5,392.5C 511.5,410.833 511.5,429.167 511.5,447.5C 447.487,447.931 383.487,447.431 319.5,446C 312.148,445.537 304.815,444.87 297.5,444C 265.849,437.225 234.183,430.559 202.5,424C 184.503,423.5 166.503,423.333 148.5,423.5C 148.5,353.833 148.5,284.167 148.5,214.5C 148.5,161.833 148.5,109.167 148.5,56.5 Z"/></g>
<g><path style="opacity:0.993" fill="#71390f" d="M 248.5,155.5 C 248.5,165.5 248.5,175.5 248.5,185.5C 226.5,185.5 204.5,185.5 182.5,185.5C 182.5,175.5 182.5,165.5 182.5,155.5C 204.5,155.5 226.5,155.5 248.5,155.5 Z"/></g>
<g><path style="opacity:0.998" fill="#9d5015" d="M 49.5,213.5 C 82.3291,214.498 115.329,214.832 148.5,214.5C 148.5,284.167 148.5,353.833 148.5,423.5C 138.167,423.5 127.833,423.5 117.5,423.5C 117.235,381.14 100.569,346.974 67.5,321C 48.1499,307.718 26.8166,302.551 3.5,305.5C 6.75455,276.679 16.9212,250.679 34,227.5C 38.7387,222.256 43.9054,217.59 49.5,213.5 Z"/></g>
<g><path style="opacity:0.995" fill="#71390f" d="M 251.5,222.5 C 255.559,231.612 260.893,239.945 267.5,247.5C 248.074,256.708 228.407,265.708 208.5,274.5C 204.347,267.575 200.847,260.242 198,252.5C 196.795,250.466 196.628,248.466 197.5,246.5C 215.526,238.485 233.526,230.485 251.5,222.5 Z"/></g>
<g><path style="opacity:0.996" fill="#71390e" d="M 287.5,266.5 C 296.044,271.932 304.377,277.599 312.5,283.5C 304.179,302.812 295.846,322.145 287.5,341.5C 286.277,342.614 284.944,342.781 283.5,342C 275.347,338.423 267.347,334.59 259.5,330.5C 268.848,309.141 278.181,287.807 287.5,266.5 Z"/></g>
<g><path style="opacity:0.996" fill="#fe9d22" d="M 117.5,423.5 C 78.1667,423.5 38.8333,423.5 -0.5,423.5C -0.5,403.5 -0.5,383.5 -0.5,363.5C 0.410094,344.287 1.74343,324.954 3.5,305.5C 26.8166,302.551 48.1499,307.718 67.5,321C 100.569,346.974 117.235,381.14 117.5,423.5 Z"/></g>
<g><path style="opacity:0.982" fill="#485959" d="M -0.5,423.5 C 38.8333,423.5 78.1667,423.5 117.5,423.5C 127.833,423.5 138.167,423.5 148.5,423.5C 148.5,433.833 148.5,444.167 148.5,454.5C 138.833,454.5 129.167,454.5 119.5,454.5C 119.5,470.167 119.5,485.833 119.5,501.5C 105.5,501.5 91.5,501.5 77.5,501.5C 77.5,485.833 77.5,470.167 77.5,454.5C 67.8333,454.5 58.1667,454.5 48.5,454.5C 48.5,470.167 48.5,485.833 48.5,501.5C 32.1667,501.5 15.8333,501.5 -0.5,501.5C -0.5,475.5 -0.5,449.5 -0.5,423.5 Z"/></g>
<g><path style="opacity:0.99" fill="#323c3b" d="M 148.5,423.5 C 166.503,423.333 184.503,423.5 202.5,424C 234.183,430.559 265.849,437.225 297.5,444C 304.815,444.87 312.148,445.537 319.5,446C 383.487,447.431 447.487,447.931 511.5,447.5C 511.5,465.5 511.5,483.5 511.5,501.5C 457.499,501.667 403.499,501.5 349.5,501C 301.636,496.225 253.969,490.059 206.5,482.5C 205.504,488.798 205.17,495.132 205.5,501.5C 186.5,501.5 167.5,501.5 148.5,501.5C 148.5,485.833 148.5,470.167 148.5,454.5C 148.5,444.167 148.5,433.833 148.5,423.5 Z"/></g>
</svg>
