<svg xmlns="http://www.w3.org/2000/svg" version="1.1" width="512px" height="512px" style="shape-rendering:geometricPrecision; text-rendering:geometricPrecision; image-rendering:optimizeQuality; fill-rule:evenodd; clip-rule:evenodd" xmlns:xlink="http://www.w3.org/1999/xlink">
<g><path style="opacity:0.983" fill="#323b3b" d="M 507.5,-0.5 C 508.833,-0.5 510.167,-0.5 511.5,-0.5C 511.5,10.1667 511.5,20.8333 511.5,31.5C 456.163,44.5011 400.829,57.5011 345.5,70.5C 342.357,59.6783 336.69,50.3449 328.5,42.5C 388.388,28.6102 448.055,14.2768 507.5,-0.5 Z"/></g>
<g><path style="opacity:0.991" fill="#feb455" d="M 328.5,42.5 C 336.69,50.3449 342.357,59.6783 345.5,70.5C 347.307,76.7275 348.64,83.0608 349.5,89.5C 323.13,95.6758 296.797,102.009 270.5,108.5C 265.532,109.659 260.532,110.659 255.5,111.5C 255.5,86.5 255.5,61.5 255.5,36.5C 267.482,32.7583 279.815,30.0917 292.5,28.5C 306.368,28.7818 318.368,33.4485 328.5,42.5 Z"/></g>
<g><path style="opacity:0.988" fill="#fed200" d="M 255.5,36.5 C 255.5,61.5 255.5,86.5 255.5,111.5C 255.5,111.833 255.5,112.167 255.5,112.5C 250.191,113.076 245.191,114.409 240.5,116.5C 220.664,121.084 200.831,125.75 181,130.5C 179.674,130.245 178.674,129.578 178,128.5C 176.513,123.221 175.347,117.888 174.5,112.5C 171.905,101.766 172.238,91.0997 175.5,80.5C 182.522,63.9777 194.522,52.811 211.5,47C 226.109,43.1808 240.776,39.6808 255.5,36.5 Z"/></g>
<g><path style="opacity:0.977" fill="#485858" d="M 175.5,80.5 C 172.238,91.0997 171.905,101.766 174.5,112.5C 116.3,126.966 57.9668,140.966 -0.5,154.5C -0.5,143.833 -0.5,133.167 -0.5,122.5C 58.091,108.186 116.758,94.1856 175.5,80.5 Z"/></g>
<g><path style="opacity:1" fill="#333b3c" d="M 270.5,108.5 C 270.5,132.833 270.5,157.167 270.5,181.5C 265.695,182.487 260.695,182.821 255.5,182.5C 250.305,182.821 245.305,182.487 240.5,181.5C 245.5,181.5 250.5,181.5 255.5,181.5C 255.5,158.5 255.5,135.5 255.5,112.5C 255.5,112.167 255.5,111.833 255.5,111.5C 260.532,110.659 265.532,109.659 270.5,108.5 Z"/></g>
<g><path style="opacity:1" fill="#485858" d="M 255.5,112.5 C 255.5,135.5 255.5,158.5 255.5,181.5C 250.5,181.5 245.5,181.5 240.5,181.5C 240.5,159.833 240.5,138.167 240.5,116.5C 245.191,114.409 250.191,113.076 255.5,112.5 Z"/></g>
<g><path style="opacity:0.984" fill="#b30343" d="M 270.5,181.5 C 323.5,181.5 376.5,181.5 429.5,181.5C 429.5,203.167 429.5,224.833 429.5,246.5C 405.5,246.5 381.5,246.5 357.5,246.5C 347.5,246.5 337.5,246.5 327.5,246.5C 303.5,246.5 279.5,246.5 255.5,246.5C 231.5,246.5 207.5,246.5 183.5,246.5C 173.5,246.5 163.5,246.5 153.5,246.5C 129.5,246.5 105.5,246.5 81.5,246.5C 81.5,246.167 81.5,245.833 81.5,245.5C 139.5,245.5 197.5,245.5 255.5,245.5C 255.5,224.5 255.5,203.5 255.5,182.5C 260.695,182.821 265.695,182.487 270.5,181.5 Z"/></g>
<g><path style="opacity:1" fill="#cf0050" d="M 240.5,181.5 C 245.305,182.487 250.305,182.821 255.5,182.5C 255.5,203.5 255.5,224.5 255.5,245.5C 197.5,245.5 139.5,245.5 81.5,245.5C 81.5,224.167 81.5,202.833 81.5,181.5C 134.5,181.5 187.5,181.5 240.5,181.5 Z"/></g>
<g><path style="opacity:0.989" fill="#f1f6f6" d="M 81.5,246.5 C 105.5,246.5 129.5,246.5 153.5,246.5C 153.5,288.833 153.5,331.167 153.5,373.5C 129.5,373.5 105.5,373.5 81.5,373.5C 81.5,331.167 81.5,288.833 81.5,246.5 Z"/></g>
<g><path style="opacity:1" fill="#4a5a5a" d="M 153.5,246.5 C 163.5,246.5 173.5,246.5 183.5,246.5C 183.5,288.833 183.5,331.167 183.5,373.5C 173.5,373.5 163.5,373.5 153.5,373.5C 153.5,331.167 153.5,288.833 153.5,246.5 Z"/></g>
<g><path style="opacity:1" fill="#f0f5f6" d="M 183.5,246.5 C 207.5,246.5 231.5,246.5 255.5,246.5C 255.5,288.833 255.5,331.167 255.5,373.5C 231.5,373.5 207.5,373.5 183.5,373.5C 183.5,331.167 183.5,288.833 183.5,246.5 Z"/></g>
<g><path style="opacity:1" fill="#cde0e3" d="M 255.5,246.5 C 279.5,246.5 303.5,246.5 327.5,246.5C 327.5,288.833 327.5,331.167 327.5,373.5C 303.5,373.5 279.5,373.5 255.5,373.5C 255.5,331.167 255.5,288.833 255.5,246.5 Z"/></g>
<g><path style="opacity:1" fill="#333d3d" d="M 327.5,246.5 C 337.5,246.5 347.5,246.5 357.5,246.5C 357.5,288.833 357.5,331.167 357.5,373.5C 347.5,373.5 337.5,373.5 327.5,373.5C 327.5,331.167 327.5,288.833 327.5,246.5 Z"/></g>
<g><path style="opacity:1" fill="#cee1e4" d="M 357.5,246.5 C 381.5,246.5 405.5,246.5 429.5,246.5C 429.5,288.833 429.5,331.167 429.5,373.5C 405.5,373.5 381.5,373.5 357.5,373.5C 357.5,331.167 357.5,288.833 357.5,246.5 Z"/></g>
<g><path style="opacity:0.997" fill="#cf004f" d="M 81.5,374.5 C 139.5,374.5 197.5,374.5 255.5,374.5C 255.5,389.167 255.5,403.833 255.5,418.5C 245.5,418.5 235.5,418.5 225.5,418.5C 225.5,428.5 225.5,438.5 225.5,448.5C 235.5,448.5 245.5,448.5 255.5,448.5C 255.5,469.5 255.5,490.5 255.5,511.5C 229.5,511.5 203.5,511.5 177.5,511.5C 128.26,502.099 97.0935,473.099 84,424.5C 81.8158,407.911 80.9825,391.245 81.5,374.5 Z"/></g>
<g><path style="opacity:0.996" fill="#b30442" d="M 81.5,374.5 C 81.5,374.167 81.5,373.833 81.5,373.5C 105.5,373.5 129.5,373.5 153.5,373.5C 163.5,373.5 173.5,373.5 183.5,373.5C 207.5,373.5 231.5,373.5 255.5,373.5C 279.5,373.5 303.5,373.5 327.5,373.5C 337.5,373.5 347.5,373.5 357.5,373.5C 381.5,373.5 405.5,373.5 429.5,373.5C 431.538,397.796 428.705,421.463 421,444.5C 403.486,482.195 374.319,504.528 333.5,511.5C 307.5,511.5 281.5,511.5 255.5,511.5C 255.5,490.5 255.5,469.5 255.5,448.5C 265.5,448.5 275.5,448.5 285.5,448.5C 285.5,438.5 285.5,428.5 285.5,418.5C 275.5,418.5 265.5,418.5 255.5,418.5C 255.5,403.833 255.5,389.167 255.5,374.5C 197.5,374.5 139.5,374.5 81.5,374.5 Z"/></g>
<g><path style="opacity:1" fill="#f0f5f6" d="M 255.5,418.5 C 255.5,428.5 255.5,438.5 255.5,448.5C 245.5,448.5 235.5,448.5 225.5,448.5C 225.5,438.5 225.5,428.5 225.5,418.5C 235.5,418.5 245.5,418.5 255.5,418.5 Z"/></g>
<g><path style="opacity:1" fill="#cde1e3" d="M 255.5,418.5 C 265.5,418.5 275.5,418.5 285.5,418.5C 285.5,428.5 285.5,438.5 285.5,448.5C 275.5,448.5 265.5,448.5 255.5,448.5C 255.5,438.5 255.5,428.5 255.5,418.5 Z"/></g>
</svg>
