<svg xmlns="http://www.w3.org/2000/svg" version="1.1" width="512px" height="512px" style="shape-rendering:geometricPrecision; text-rendering:geometricPrecision; image-rendering:optimizeQuality; fill-rule:evenodd; clip-rule:evenodd" xmlns:xlink="http://www.w3.org/1999/xlink">
<g><path style="opacity:0.995" fill="#b8b8bd" d="M 168.5,-0.5 C 197.5,-0.5 226.5,-0.5 255.5,-0.5C 255.5,30.5 255.5,61.5 255.5,92.5C 217.588,91.9862 180.921,98.3195 145.5,111.5C 147.222,80.8316 149.056,50.1649 151,19.5C 153.515,9.82441 159.349,3.15774 168.5,-0.5 Z"/></g>
<g><path style="opacity:0.997" fill="#909095" d="M 255.5,-0.5 C 284.5,-0.5 313.5,-0.5 342.5,-0.5C 351.651,3.15774 357.485,9.82441 360,19.5C 361.944,50.1649 363.778,80.8316 365.5,111.5C 330.029,98.6289 293.362,92.2956 255.5,92.5C 255.5,61.5 255.5,30.5 255.5,-0.5 Z"/></g>
<g><path style="opacity:0.998" fill="#e4e4e7" d="M 255.5,92.5 C 255.5,103.5 255.5,114.5 255.5,125.5C 243.615,125.07 231.949,125.736 220.5,127.5C 193.218,129.402 167.551,136.735 143.5,149.5C 144.093,136.829 144.76,124.162 145.5,111.5C 180.921,98.3195 217.588,91.9862 255.5,92.5 Z"/></g>
<g><path style="opacity:0.997" fill="#b7b7bc" d="M 255.5,92.5 C 293.362,92.2956 330.029,98.6289 365.5,111.5C 366.24,124.162 366.907,136.829 367.5,149.5C 343.553,137.512 318.22,130.179 291.5,127.5C 279.686,126.246 267.686,125.579 255.5,125.5C 255.5,114.5 255.5,103.5 255.5,92.5 Z"/></g>
<g><path style="opacity:1" fill="#b8b8bd" d="M 255.5,125.5 C 255.5,174.5 255.5,223.5 255.5,272.5C 244.833,272.5 234.167,272.5 223.5,272.5C 223.5,247.167 223.5,221.833 223.5,196.5C 223.5,186.5 223.5,176.5 223.5,166.5C 223.5,153.5 223.5,140.5 223.5,127.5C 222.5,127.5 221.5,127.5 220.5,127.5C 231.949,125.736 243.615,125.07 255.5,125.5 Z"/></g>
<g><path style="opacity:1" fill="#909095" d="M 255.5,125.5 C 267.686,125.579 279.686,126.246 291.5,127.5C 290.167,127.5 288.833,127.5 287.5,127.5C 287.5,140.5 287.5,153.5 287.5,166.5C 287.5,176.5 287.5,186.5 287.5,196.5C 287.5,221.833 287.5,247.167 287.5,272.5C 276.833,272.5 266.167,272.5 255.5,272.5C 255.5,223.5 255.5,174.5 255.5,125.5 Z"/></g>
<g><path style="opacity:0.997" fill="#495959" d="M 220.5,127.5 C 221.5,127.5 222.5,127.5 223.5,127.5C 223.5,140.5 223.5,153.5 223.5,166.5C 196.5,166.5 169.5,166.5 142.5,166.5C 142.532,160.811 142.866,155.145 143.5,149.5C 167.551,136.735 193.218,129.402 220.5,127.5 Z"/></g>
<g><path style="opacity:0.998" fill="#323c3c" d="M 291.5,127.5 C 318.22,130.179 343.553,137.512 367.5,149.5C 368.134,155.145 368.468,160.811 368.5,166.5C 341.5,166.5 314.5,166.5 287.5,166.5C 287.5,153.5 287.5,140.5 287.5,127.5C 288.833,127.5 290.167,127.5 291.5,127.5 Z"/></g>
<g><path style="opacity:0.997" fill="#8f8f94" d="M 142.5,166.5 C 169.5,166.5 196.5,166.5 223.5,166.5C 223.5,176.5 223.5,186.5 223.5,196.5C 195.833,196.5 168.167,196.5 140.5,196.5C 141.206,186.504 141.872,176.504 142.5,166.5 Z"/></g>
<g><path style="opacity:0.996" fill="#7c8085" d="M 287.5,166.5 C 314.5,166.5 341.5,166.5 368.5,166.5C 369.128,176.504 369.794,186.504 370.5,196.5C 342.833,196.5 315.167,196.5 287.5,196.5C 287.5,186.5 287.5,176.5 287.5,166.5 Z"/></g>
<g><path style="opacity:0.997" fill="#e4e4e7" d="M 140.5,196.5 C 168.167,196.5 195.833,196.5 223.5,196.5C 223.5,221.833 223.5,247.167 223.5,272.5C 234.167,272.5 244.833,272.5 255.5,272.5C 255.5,286.167 255.5,299.833 255.5,313.5C 239.5,313.5 223.5,313.5 207.5,313.5C 207.5,323.5 207.5,333.5 207.5,343.5C 223.5,343.5 239.5,343.5 255.5,343.5C 255.5,360.5 255.5,377.5 255.5,394.5C 232.164,394.667 208.831,394.5 185.5,394C 173.639,391.565 162.972,386.732 153.5,379.5C 140.588,367.001 133.588,351.668 132.5,333.5C 135.479,287.853 138.146,242.187 140.5,196.5 Z"/></g>
<g><path style="opacity:0.997" fill="#b7b7bc" d="M 287.5,196.5 C 315.167,196.5 342.833,196.5 370.5,196.5C 372.854,242.187 375.521,287.853 378.5,333.5C 377.645,351.769 370.645,367.103 357.5,379.5C 349.157,385.837 339.823,390.337 329.5,393C 304.867,394.43 280.201,394.93 255.5,394.5C 255.5,377.5 255.5,360.5 255.5,343.5C 271.5,343.5 287.5,343.5 303.5,343.5C 303.5,333.5 303.5,323.5 303.5,313.5C 287.5,313.5 271.5,313.5 255.5,313.5C 255.5,299.833 255.5,286.167 255.5,272.5C 266.167,272.5 276.833,272.5 287.5,272.5C 287.5,247.167 287.5,221.833 287.5,196.5 Z"/></g>
<g><path style="opacity:1" fill="#909095" d="M 255.5,313.5 C 255.5,323.5 255.5,333.5 255.5,343.5C 239.5,343.5 223.5,343.5 207.5,343.5C 207.5,333.5 207.5,323.5 207.5,313.5C 223.5,313.5 239.5,313.5 255.5,313.5 Z"/></g>
<g><path style="opacity:1" fill="#7d8186" d="M 255.5,313.5 C 271.5,313.5 287.5,313.5 303.5,313.5C 303.5,323.5 303.5,333.5 303.5,343.5C 287.5,343.5 271.5,343.5 255.5,343.5C 255.5,333.5 255.5,323.5 255.5,313.5 Z"/></g>
<g><path style="opacity:0.997" fill="#b8b8bd" d="M 153.5,379.5 C 162.972,386.732 173.639,391.565 185.5,394C 208.831,394.5 232.164,394.667 255.5,394.5C 255.5,423.5 255.5,452.5 255.5,481.5C 211.167,481.5 166.833,481.5 122.5,481.5C 122.06,461.121 122.56,440.788 124,420.5C 128.479,402.837 138.312,389.17 153.5,379.5 Z"/></g>
<g><path style="opacity:0.998" fill="#909095" d="M 357.5,379.5 C 374.17,390.369 384.336,405.702 388,425.5C 388.5,444.164 388.667,462.83 388.5,481.5C 344.167,481.5 299.833,481.5 255.5,481.5C 255.5,452.5 255.5,423.5 255.5,394.5C 280.201,394.93 304.867,394.43 329.5,393C 339.823,390.337 349.157,385.837 357.5,379.5 Z"/></g>
<g><path style="opacity:1" fill="#8fe269" d="M 122.5,481.5 C 166.833,481.5 211.167,481.5 255.5,481.5C 255.5,491.5 255.5,501.5 255.5,511.5C 181.167,511.5 106.833,511.5 32.5,511.5C 32.5,501.5 32.5,491.5 32.5,481.5C 62.5,481.5 92.5,481.5 122.5,481.5 Z"/></g>
<g><path style="opacity:0.999" fill="#56c125" d="M 255.5,481.5 C 299.833,481.5 344.167,481.5 388.5,481.5C 418.5,481.5 448.5,481.5 478.5,481.5C 478.5,491.5 478.5,501.5 478.5,511.5C 404.167,511.5 329.833,511.5 255.5,511.5C 255.5,501.5 255.5,491.5 255.5,481.5 Z"/></g>
</svg>
