<svg xmlns="http://www.w3.org/2000/svg" version="1.1" width="512px" height="512px" style="shape-rendering:geometricPrecision; text-rendering:geometricPrecision; image-rendering:optimizeQuality; fill-rule:evenodd; clip-rule:evenodd" xmlns:xlink="http://www.w3.org/1999/xlink">
<g><path style="opacity:0.993" fill="#495959" d="M -0.5,-0.5 C 0.5,-0.5 1.5,-0.5 2.5,-0.5C 15.5241,5.33796 29.1907,9.50462 43.5,12C 82.546,18.7618 121.879,22.7618 161.5,24C 192.822,25.2024 224.155,25.7024 255.5,25.5C 255.5,46.5 255.5,67.5 255.5,88.5C 183.998,88.1675 112.665,88.5008 41.5,89.5C 27.5,89.5 13.5,89.5 -0.5,89.5C -0.5,59.5 -0.5,29.5 -0.5,-0.5 Z"/></g>
<g><path style="opacity:0.996" fill="#313c3c" d="M 508.5,-0.5 C 509.5,-0.5 510.5,-0.5 511.5,-0.5C 511.5,29.5 511.5,59.5 511.5,89.5C 497.5,89.5 483.5,89.5 469.5,89.5C 398.335,88.5008 327.002,88.1675 255.5,88.5C 255.5,67.5 255.5,46.5 255.5,25.5C 307.255,26.0889 358.921,24.2556 410.5,20C 439.32,17.6967 467.654,12.6967 495.5,5C 500.154,3.66605 504.487,1.83272 508.5,-0.5 Z"/></g>
<g><path style="opacity:0.997" fill="#cf004f" d="M 41.5,89.5 C 112.833,89.5 184.167,89.5 255.5,89.5C 255.5,110.167 255.5,130.833 255.5,151.5C 244.654,151.172 233.987,151.506 223.5,152.5C 200.167,152.5 176.833,152.5 153.5,152.5C 131.833,152.5 110.167,152.5 88.5,152.5C 72.8333,152.5 57.1667,152.5 41.5,152.5C 41.5,131.5 41.5,110.5 41.5,89.5 Z"/></g>
<g><path style="opacity:0.997" fill="#b10242" d="M 41.5,89.5 C 112.665,88.5008 183.998,88.1675 255.5,88.5C 327.002,88.1675 398.335,88.5008 469.5,89.5C 469.5,110.5 469.5,131.5 469.5,152.5C 453.833,152.5 438.167,152.5 422.5,152.5C 400.833,152.5 379.167,152.5 357.5,152.5C 334.167,152.5 310.833,152.5 287.5,152.5C 276.833,152.5 266.167,152.5 255.5,152.5C 244.833,152.5 234.167,152.5 223.5,152.5C 233.987,151.506 244.654,151.172 255.5,151.5C 255.5,130.833 255.5,110.167 255.5,89.5C 184.167,89.5 112.833,89.5 41.5,89.5 Z"/></g>
<g><path style="opacity:0.989" fill="#b30042" d="M 88.5,152.5 C 110.167,152.5 131.833,152.5 153.5,152.5C 153.5,169.167 153.5,185.833 153.5,202.5C 131.833,202.5 110.167,202.5 88.5,202.5C 88.5,185.833 88.5,169.167 88.5,152.5 Z"/></g>
<g><path style="opacity:0.99" fill="#ffd200" d="M 223.5,152.5 C 234.167,152.5 244.833,152.5 255.5,152.5C 255.5,169.167 255.5,185.833 255.5,202.5C 244.833,202.5 234.167,202.5 223.5,202.5C 223.5,185.833 223.5,169.167 223.5,152.5 Z"/></g>
<g><path style="opacity:0.99" fill="#ffb454" d="M 255.5,152.5 C 266.167,152.5 276.833,152.5 287.5,152.5C 287.5,169.167 287.5,185.833 287.5,202.5C 276.833,202.5 266.167,202.5 255.5,202.5C 255.5,185.833 255.5,169.167 255.5,152.5 Z"/></g>
<g><path style="opacity:0.989" fill="#900035" d="M 357.5,152.5 C 379.167,152.5 400.833,152.5 422.5,152.5C 422.5,169.167 422.5,185.833 422.5,202.5C 400.833,202.5 379.167,202.5 357.5,202.5C 357.5,185.833 357.5,169.167 357.5,152.5 Z"/></g>
<g><path style="opacity:1" fill="#cf004f" d="M 88.5,202.5 C 110.167,202.5 131.833,202.5 153.5,202.5C 176.833,202.5 200.167,202.5 223.5,202.5C 234.167,202.5 244.833,202.5 255.5,202.5C 255.5,212.5 255.5,222.5 255.5,232.5C 221.5,232.5 187.5,232.5 153.5,232.5C 131.833,232.5 110.167,232.5 88.5,232.5C 68.5,232.5 48.5,232.5 28.5,232.5C 28.5,222.5 28.5,212.5 28.5,202.5C 48.5,202.5 68.5,202.5 88.5,202.5 Z"/></g>
<g><path style="opacity:1" fill="#b20041" d="M 255.5,202.5 C 266.167,202.5 276.833,202.5 287.5,202.5C 310.833,202.5 334.167,202.5 357.5,202.5C 379.167,202.5 400.833,202.5 422.5,202.5C 442.5,202.5 462.5,202.5 482.5,202.5C 482.5,212.5 482.5,222.5 482.5,232.5C 462.5,232.5 442.5,232.5 422.5,232.5C 400.833,232.5 379.167,232.5 357.5,232.5C 323.5,232.5 289.5,232.5 255.5,232.5C 255.5,222.5 255.5,212.5 255.5,202.5 Z"/></g>
<g><path style="opacity:0.989" fill="#b30042" d="M 88.5,232.5 C 110.167,232.5 131.833,232.5 153.5,232.5C 153.5,315.5 153.5,398.5 153.5,481.5C 131.833,481.5 110.167,481.5 88.5,481.5C 88.5,398.5 88.5,315.5 88.5,232.5 Z"/></g>
<g><path style="opacity:0.989" fill="#900035" d="M 357.5,232.5 C 379.167,232.5 400.833,232.5 422.5,232.5C 422.5,315.5 422.5,398.5 422.5,481.5C 400.833,481.5 379.167,481.5 357.5,481.5C 357.5,398.5 357.5,315.5 357.5,232.5 Z"/></g>
<g><path style="opacity:0.994" fill="#485959" d="M 88.5,481.5 C 110.167,481.5 131.833,481.5 153.5,481.5C 170.167,481.5 186.833,481.5 203.5,481.5C 203.5,491.5 203.5,501.5 203.5,511.5C 148.167,511.5 92.8333,511.5 37.5,511.5C 37.5,501.5 37.5,491.5 37.5,481.5C 54.5,481.5 71.5,481.5 88.5,481.5 Z"/></g>
<g><path style="opacity:1" fill="#313c3b" d="M 357.5,481.5 C 379.167,481.5 400.833,481.5 422.5,481.5C 437.833,481.5 453.167,481.5 468.5,481.5C 468.5,491.5 468.5,501.5 468.5,511.5C 413.5,511.5 358.5,511.5 303.5,511.5C 303.5,501.5 303.5,491.5 303.5,481.5C 321.5,481.5 339.5,481.5 357.5,481.5 Z"/></g>
</svg>
