<svg xmlns="http://www.w3.org/2000/svg" version="1.1" width="512px" height="512px" style="shape-rendering:geometricPrecision; text-rendering:geometricPrecision; image-rendering:optimizeQuality; fill-rule:evenodd; clip-rule:evenodd" xmlns:xlink="http://www.w3.org/1999/xlink">
<g><path style="opacity:0.996" fill="#cf0050" d="M -0.5,-0.5 C 29.5,-0.5 59.5,-0.5 89.5,-0.5C 89.5,15.5 89.5,31.5 89.5,47.5C 89.5,57.8333 89.5,68.1667 89.5,78.5C 89.5,113.167 89.5,147.833 89.5,182.5C 89.5,192.833 89.5,203.167 89.5,213.5C 89.5,226.833 89.5,240.167 89.5,253.5C 59.5,253.5 29.5,253.5 -0.5,253.5C -0.5,168.833 -0.5,84.1667 -0.5,-0.5 Z"/></g>
<g><path style="opacity:0.996" fill="#fed302" d="M 165.5,-0.5 C 223.167,-0.5 280.833,-0.5 338.5,-0.5C 338.5,115.833 338.5,232.167 338.5,348.5C 309.329,348.169 280.329,348.502 251.5,349.5C 251.5,393.833 251.5,438.167 251.5,482.5C 222.833,482.5 194.167,482.5 165.5,482.5C 165.5,392.833 165.5,303.167 165.5,213.5C 165.5,203.167 165.5,192.833 165.5,182.5C 165.5,147.833 165.5,113.167 165.5,78.5C 165.5,68.1667 165.5,57.8333 165.5,47.5C 165.5,31.5 165.5,15.5 165.5,-0.5 Z"/></g>
<g><path style="opacity:1" fill="#feb555" d="M 338.5,-0.5 C 396.167,-0.5 453.833,-0.5 511.5,-0.5C 511.5,160.5 511.5,321.5 511.5,482.5C 483.167,482.5 454.833,482.5 426.5,482.5C 426.5,437.833 426.5,393.167 426.5,348.5C 397.167,348.5 367.833,348.5 338.5,348.5C 338.5,232.167 338.5,115.833 338.5,-0.5 Z"/></g>
<g><path style="opacity:0.996" fill="#495959" d="M 89.5,47.5 C 114.833,47.5 140.167,47.5 165.5,47.5C 165.5,57.8333 165.5,68.1667 165.5,78.5C 140.167,78.5 114.833,78.5 89.5,78.5C 89.5,68.1667 89.5,57.8333 89.5,47.5 Z"/></g>
<g><path style="opacity:1" fill="#f1f5f6" d="M 218.5,73.5 C 228.5,73.5 238.5,73.5 248.5,73.5C 248.5,92.5 248.5,111.5 248.5,130.5C 238.5,130.5 228.5,130.5 218.5,130.5C 218.5,111.5 218.5,92.5 218.5,73.5 Z"/></g>
<g><path style="opacity:1" fill="#f1f5f6" d="M 288.5,73.5 C 298.5,73.5 308.5,73.5 318.5,73.5C 318.5,92.5 318.5,111.5 318.5,130.5C 308.5,130.5 298.5,130.5 288.5,130.5C 288.5,111.5 288.5,92.5 288.5,73.5 Z"/></g>
<g><path style="opacity:1" fill="#cee0e2" d="M 358.5,73.5 C 368.5,73.5 378.5,73.5 388.5,73.5C 388.5,92.5 388.5,111.5 388.5,130.5C 378.5,130.5 368.5,130.5 358.5,130.5C 358.5,111.5 358.5,92.5 358.5,73.5 Z"/></g>
<g><path style="opacity:1" fill="#cee0e2" d="M 428.5,73.5 C 438.5,73.5 448.5,73.5 458.5,73.5C 458.5,92.5 458.5,111.5 458.5,130.5C 448.5,130.5 438.5,130.5 428.5,130.5C 428.5,111.5 428.5,92.5 428.5,73.5 Z"/></g>
<g><path style="opacity:1" fill="#f1f5f6" d="M 218.5,161.5 C 228.5,161.5 238.5,161.5 248.5,161.5C 248.5,180.5 248.5,199.5 248.5,218.5C 238.5,218.5 228.5,218.5 218.5,218.5C 218.5,199.5 218.5,180.5 218.5,161.5 Z"/></g>
<g><path style="opacity:1" fill="#f1f5f6" d="M 288.5,161.5 C 298.5,161.5 308.5,161.5 318.5,161.5C 318.5,180.5 318.5,199.5 318.5,218.5C 308.5,218.5 298.5,218.5 288.5,218.5C 288.5,199.5 288.5,180.5 288.5,161.5 Z"/></g>
<g><path style="opacity:1" fill="#cee0e2" d="M 358.5,161.5 C 368.5,161.5 378.5,161.5 388.5,161.5C 388.5,180.5 388.5,199.5 388.5,218.5C 378.5,218.5 368.5,218.5 358.5,218.5C 358.5,199.5 358.5,180.5 358.5,161.5 Z"/></g>
<g><path style="opacity:1" fill="#cee0e2" d="M 428.5,161.5 C 438.5,161.5 448.5,161.5 458.5,161.5C 458.5,180.5 458.5,199.5 458.5,218.5C 448.5,218.5 438.5,218.5 428.5,218.5C 428.5,199.5 428.5,180.5 428.5,161.5 Z"/></g>
<g><path style="opacity:0.996" fill="#495959" d="M 89.5,182.5 C 114.833,182.5 140.167,182.5 165.5,182.5C 165.5,192.833 165.5,203.167 165.5,213.5C 140.167,213.5 114.833,213.5 89.5,213.5C 89.5,203.167 89.5,192.833 89.5,182.5 Z"/></g>
<g><path style="opacity:1" fill="#f1f5f6" d="M 218.5,256.5 C 228.5,256.5 238.5,256.5 248.5,256.5C 248.5,275.5 248.5,294.5 248.5,313.5C 238.5,313.5 228.5,313.5 218.5,313.5C 218.5,294.5 218.5,275.5 218.5,256.5 Z"/></g>
<g><path style="opacity:1" fill="#f1f5f6" d="M 288.5,256.5 C 298.5,256.5 308.5,256.5 318.5,256.5C 318.5,275.5 318.5,294.5 318.5,313.5C 308.5,313.5 298.5,313.5 288.5,313.5C 288.5,294.5 288.5,275.5 288.5,256.5 Z"/></g>
<g><path style="opacity:1" fill="#cee0e2" d="M 358.5,256.5 C 368.5,256.5 378.5,256.5 388.5,256.5C 388.5,275.5 388.5,294.5 388.5,313.5C 378.5,313.5 368.5,313.5 358.5,313.5C 358.5,294.5 358.5,275.5 358.5,256.5 Z"/></g>
<g><path style="opacity:1" fill="#cee0e2" d="M 428.5,256.5 C 438.5,256.5 448.5,256.5 458.5,256.5C 458.5,275.5 458.5,294.5 458.5,313.5C 448.5,313.5 438.5,313.5 428.5,313.5C 428.5,294.5 428.5,275.5 428.5,256.5 Z"/></g>
<g><path style="opacity:1" fill="#4a5a5a" d="M 251.5,349.5 C 280.5,349.5 309.5,349.5 338.5,349.5C 338.5,393.833 338.5,438.167 338.5,482.5C 333.5,482.5 328.5,482.5 323.5,482.5C 323.5,448.167 323.5,413.833 323.5,379.5C 309.5,379.5 295.5,379.5 281.5,379.5C 281.5,413.833 281.5,448.167 281.5,482.5C 271.5,482.5 261.5,482.5 251.5,482.5C 251.5,438.167 251.5,393.833 251.5,349.5 Z"/></g>
<g><path style="opacity:1" fill="#323c3c" d="M 338.5,349.5 C 367.5,349.5 396.5,349.5 425.5,349.5C 425.5,393.833 425.5,438.167 425.5,482.5C 415.833,482.5 406.167,482.5 396.5,482.5C 396.5,447.833 396.5,413.167 396.5,378.5C 382.167,378.5 367.833,378.5 353.5,378.5C 353.5,413.167 353.5,447.833 353.5,482.5C 348.5,482.5 343.5,482.5 338.5,482.5C 338.5,438.167 338.5,393.833 338.5,349.5 Z"/></g>
<g><path style="opacity:1" fill="#8c7443" d="M 251.5,349.5 C 280.329,348.502 309.329,348.169 338.5,348.5C 367.833,348.5 397.167,348.5 426.5,348.5C 426.5,393.167 426.5,437.833 426.5,482.5C 426.167,482.5 425.833,482.5 425.5,482.5C 425.5,438.167 425.5,393.833 425.5,349.5C 396.5,349.5 367.5,349.5 338.5,349.5C 309.5,349.5 280.5,349.5 251.5,349.5 Z"/></g>
<g><path style="opacity:1" fill="#f0f6f6" d="M 323.5,482.5 C 309.5,482.5 295.5,482.5 281.5,482.5C 281.5,448.167 281.5,413.833 281.5,379.5C 295.5,379.5 309.5,379.5 323.5,379.5C 323.5,413.833 323.5,448.167 323.5,482.5 Z"/></g>
<g><path style="opacity:1" fill="#93a2a4" d="M 396.5,482.5 C 396.167,482.5 395.833,482.5 395.5,482.5C 395.5,448.167 395.5,413.833 395.5,379.5C 381.833,379.5 368.167,379.5 354.5,379.5C 354.5,413.833 354.5,448.167 354.5,482.5C 354.167,482.5 353.833,482.5 353.5,482.5C 353.5,447.833 353.5,413.167 353.5,378.5C 367.833,378.5 382.167,378.5 396.5,378.5C 396.5,413.167 396.5,447.833 396.5,482.5 Z"/></g>
<g><path style="opacity:1" fill="#cde1e3" d="M 395.5,482.5 C 381.833,482.5 368.167,482.5 354.5,482.5C 354.5,448.167 354.5,413.833 354.5,379.5C 368.167,379.5 381.833,379.5 395.5,379.5C 395.5,413.833 395.5,448.167 395.5,482.5 Z"/></g>
<g><path style="opacity:1" fill="#8fe16a" d="M -0.5,482.5 C 54.8333,482.5 110.167,482.5 165.5,482.5C 194.167,482.5 222.833,482.5 251.5,482.5C 261.5,482.5 271.5,482.5 281.5,482.5C 295.5,482.5 309.5,482.5 323.5,482.5C 328.5,482.5 333.5,482.5 338.5,482.5C 338.5,492.167 338.5,501.833 338.5,511.5C 225.5,511.5 112.5,511.5 -0.5,511.5C -0.5,501.833 -0.5,492.167 -0.5,482.5 Z"/></g>
<g><path style="opacity:1" fill="#56c025" d="M 338.5,482.5 C 343.5,482.5 348.5,482.5 353.5,482.5C 353.833,482.5 354.167,482.5 354.5,482.5C 368.167,482.5 381.833,482.5 395.5,482.5C 395.833,482.5 396.167,482.5 396.5,482.5C 406.167,482.5 415.833,482.5 425.5,482.5C 425.833,482.5 426.167,482.5 426.5,482.5C 454.833,482.5 483.167,482.5 511.5,482.5C 511.5,492.167 511.5,501.833 511.5,511.5C 453.833,511.5 396.167,511.5 338.5,511.5C 338.5,501.833 338.5,492.167 338.5,482.5 Z"/></g>
</svg>
