<svg xmlns="http://www.w3.org/2000/svg" version="1.1" width="512px" height="512px" style="shape-rendering:geometricPrecision; text-rendering:geometricPrecision; image-rendering:optimizeQuality; fill-rule:evenodd; clip-rule:evenodd" xmlns:xlink="http://www.w3.org/1999/xlink">
<g><path style="opacity:0.993" fill="#cde0e4" d="M 42.5,-0.5 C 43.5,-0.5 44.5,-0.5 45.5,-0.5C 118.5,73.1667 191.833,146.5 265.5,219.5C 268.77,224.44 272.77,228.773 277.5,232.5C 281.167,236.833 285.167,240.833 289.5,244.5C 293.5,247.833 297.167,251.5 300.5,255.5C 293.5,262.833 286.5,270.167 279.5,277.5C 278.833,277.833 278.167,278.167 277.5,278.5C 277.631,277.761 277.464,277.094 277,276.5C 192.299,191.965 107.799,107.299 23.5,22.5C 24.7226,19.7261 26.2226,17.0594 28,14.5C 32.3644,8.97026 37.1977,3.97026 42.5,-0.5 Z"/></g>
<g><path style="opacity:0.985" fill="#f1f5f6" d="M 402.5,-0.5 C 403.5,-0.5 404.5,-0.5 405.5,-0.5C 411.797,6.29817 418.297,12.9648 425,19.5C 425.667,20.5 425.667,21.5 425,22.5C 401.667,45.8333 378.333,69.1667 355,92.5C 354.333,93.1667 354.333,93.8333 355,94.5C 361.667,101.167 368.333,107.833 375,114.5C 399,90.5 423,66.5 447,42.5C 450.704,46.0357 454.204,49.7024 457.5,53.5C 403.833,106.833 350.167,160.167 296.5,213.5C 292.267,209.357 288.267,205.023 284.5,200.5C 268.585,170.39 270.419,141.39 290,113.5C 328.064,75.9372 365.564,37.9372 402.5,-0.5 Z"/></g>
<g><path style="opacity:0.993" fill="#f0f5f6" d="M 23.5,22.5 C 107.799,107.299 192.299,191.965 277,276.5C 277.464,277.094 277.631,277.761 277.5,278.5C 269.5,286.833 261.5,295.167 253.5,303.5C 246.833,310.833 239.833,317.833 232.5,324.5C 224.88,317.216 217.214,309.882 209.5,302.5C 201.779,293.778 193.446,285.778 184.5,278.5C 133.535,227.035 82.368,175.701 31,124.5C 9.85101,96.7968 5.18434,66.4635 17,33.5C 18.6891,29.4401 20.8558,25.7734 23.5,22.5 Z"/></g>
<g><path style="opacity:0.988" fill="#cee1e4" d="M 457.5,53.5 C 460.935,57.4379 464.602,61.2712 468.5,65C 445,88.5 421.5,112 398,135.5C 397.333,136.167 397.333,136.833 398,137.5C 403.833,143.333 409.667,149.167 415.5,155C 416.167,155.667 416.833,155.667 417.5,155C 440.707,131.459 464.207,108.293 488,85.5C 495.145,92.6449 502.312,99.8116 509.5,107C 471.833,144.667 434.167,182.333 396.5,220C 368.08,239.994 338.747,241.494 308.5,224.5C 305.149,221.152 301.482,218.152 297.5,215.5C 297.167,214.833 296.833,214.167 296.5,213.5C 350.167,160.167 403.833,106.833 457.5,53.5 Z"/></g>
<g><path style="opacity:0.991" fill="#6aa8fe" d="M 284.5,200.5 C 288.267,205.023 292.267,209.357 296.5,213.5C 296.833,214.167 297.167,214.833 297.5,215.5C 296.448,215.351 295.448,215.517 294.5,216C 288.965,221.703 283.298,227.203 277.5,232.5C 272.77,228.773 268.77,224.44 265.5,219.5C 272.167,213.5 278.5,207.167 284.5,200.5 Z"/></g>
<g><path style="opacity:0.976" fill="#4994fe" d="M 297.5,215.5 C 301.482,218.152 305.149,221.152 308.5,224.5C 302.167,231.167 295.833,237.833 289.5,244.5C 285.167,240.833 281.167,236.833 277.5,232.5C 283.298,227.203 288.965,221.703 294.5,216C 295.448,215.517 296.448,215.351 297.5,215.5 Z"/></g>
<g><path style="opacity:0.986" fill="#4894fe" d="M 300.5,255.5 C 370.529,324.196 440.862,392.53 511.5,460.5C 511.5,461.5 511.5,462.5 511.5,463.5C 504.202,472.133 496.535,480.467 488.5,488.5C 419.201,418.701 349.701,349.035 280,279.5C 279.536,278.906 279.369,278.239 279.5,277.5C 286.5,270.167 293.5,262.833 300.5,255.5 Z"/></g>
<g><path style="opacity:0.996" fill="#6aa8fe" d="M 184.5,278.5 C 193.446,285.778 201.779,293.778 209.5,302.5C 146.522,363.811 84.1885,425.811 22.5,488.5C 14.4729,481.14 6.80627,473.473 -0.5,465.5C -0.5,464.5 -0.5,463.5 -0.5,462.5C 61.1667,401.167 122.833,339.833 184.5,278.5 Z"/></g>
<g><path style="opacity:0.993" fill="#69a7ff" d="M 279.5,277.5 C 279.369,278.239 279.536,278.906 280,279.5C 349.701,349.035 419.201,418.701 488.5,488.5C 482.405,496.351 476.072,504.018 469.5,511.5C 468.5,511.5 467.5,511.5 466.5,511.5C 395.527,442.194 324.527,372.861 253.5,303.5C 261.5,295.167 269.5,286.833 277.5,278.5C 278.167,278.167 278.833,277.833 279.5,277.5 Z"/></g>
<g><path style="opacity:0.99" fill="#4a93fe" d="M 209.5,302.5 C 217.214,309.882 224.88,317.216 232.5,324.5C 170.5,386.833 108.5,449.167 46.5,511.5C 45.5,511.5 44.5,511.5 43.5,511.5C 36.1311,504.133 29.1311,496.466 22.5,488.5C 84.1885,425.811 146.522,363.811 209.5,302.5 Z"/></g>
</svg>
