<svg xmlns="http://www.w3.org/2000/svg" version="1.1" width="512px" height="512px" style="shape-rendering:geometricPrecision; text-rendering:geometricPrecision; image-rendering:optimizeQuality; fill-rule:evenodd; clip-rule:evenodd" xmlns:xlink="http://www.w3.org/1999/xlink">
<g><path style="opacity:0.986" fill="#8ee169" d="M 171.5,-0.5 C 190.5,-0.5 209.5,-0.5 228.5,-0.5C 228.5,27.8333 228.5,56.1667 228.5,84.5C 218.5,84.5 208.5,84.5 198.5,84.5C 189.5,84.5 180.5,84.5 171.5,84.5C 171.5,56.1667 171.5,27.8333 171.5,-0.5 Z"/></g>
<g><path style="opacity:0.995" fill="#56c025" d="M 228.5,-0.5 C 277.5,-0.5 326.5,-0.5 375.5,-0.5C 375.5,77.5 375.5,155.5 375.5,233.5C 343.5,233.5 311.5,233.5 279.5,233.5C 279.832,189.33 279.499,145.33 278.5,101.5C 276.619,92.1189 270.952,86.6189 261.5,85C 250.505,84.5002 239.505,84.3335 228.5,84.5C 228.5,56.1667 228.5,27.8333 228.5,-0.5 Z"/></g>
<g><path style="opacity:0.992" fill="#f0f5f6" d="M 125.5,84.5 C 125.5,102.167 125.5,119.833 125.5,137.5C 135.319,138.494 145.319,138.827 155.5,138.5C 155.5,120.5 155.5,102.5 155.5,84.5C 160.833,84.5 166.167,84.5 171.5,84.5C 180.5,84.5 189.5,84.5 198.5,84.5C 198.5,84.8333 198.5,85.1667 198.5,85.5C 197.501,134.664 197.168,183.997 197.5,233.5C 157.167,233.5 116.833,233.5 76.5,233.5C 76.1667,233.5 75.8333,233.5 75.5,233.5C 75.3333,189.499 75.5,145.499 76,101.5C 77.2804,92.8858 82.1137,87.3858 90.5,85C 102.162,84.5001 113.829,84.3335 125.5,84.5 Z"/></g>
<g><path style="opacity:0.994" fill="#495958" d="M 125.5,84.5 C 135.167,84.5 144.833,84.5 154.5,84.5C 154.5,102.167 154.5,119.833 154.5,137.5C 144.833,137.5 135.167,137.5 125.5,137.5C 125.5,119.833 125.5,102.167 125.5,84.5 Z"/></g>
<g><path style="opacity:1" fill="#323c3b" d="M 198.5,85.5 C 208.167,85.5 217.833,85.5 227.5,85.5C 227.168,135.003 227.501,184.336 228.5,233.5C 228.5,233.833 228.5,234.167 228.5,234.5C 218.5,234.5 208.5,234.5 198.5,234.5C 198.5,184.833 198.5,135.167 198.5,85.5 Z"/></g>
<g><path style="opacity:1" fill="#576660" d="M 198.5,85.5 C 198.5,85.1667 198.5,84.8333 198.5,84.5C 208.5,84.5 218.5,84.5 228.5,84.5C 228.5,134.167 228.5,183.833 228.5,233.5C 227.501,184.336 227.168,135.003 227.5,85.5C 217.833,85.5 208.167,85.5 198.5,85.5 Z"/></g>
<g><path style="opacity:1" fill="#cde0e3" d="M 228.5,84.5 C 239.505,84.3335 250.505,84.5002 261.5,85C 270.952,86.6189 276.619,92.1189 278.5,101.5C 278.5,145.833 278.5,190.167 278.5,234.5C 261.833,234.5 245.167,234.5 228.5,234.5C 228.5,234.167 228.5,233.833 228.5,233.5C 228.5,183.833 228.5,134.167 228.5,84.5 Z"/></g>
<g><path style="opacity:1" fill="#7b8787" d="M 154.5,84.5 C 154.833,84.5 155.167,84.5 155.5,84.5C 155.5,102.5 155.5,120.5 155.5,138.5C 145.319,138.827 135.319,138.494 125.5,137.5C 135.167,137.5 144.833,137.5 154.5,137.5C 154.5,119.833 154.5,102.167 154.5,84.5 Z"/></g>
<g><path style="opacity:0.999" fill="#fed200" d="M 75.5,233.5 C 75.8333,233.5 76.1667,233.5 76.5,233.5C 96.3264,234.497 116.326,234.83 136.5,234.5C 136.5,326.833 136.5,419.167 136.5,511.5C 109.5,511.5 82.5,511.5 55.5,511.5C 49.5854,508.739 46.0854,504.072 45,497.5C 44.3333,414.5 44.3333,331.5 45,248.5C 45.7839,242.374 48.9506,237.874 54.5,235C 61.4112,233.616 68.4112,233.116 75.5,233.5 Z"/></g>
<g><path style="opacity:1" fill="#d5c9b4" d="M 198.5,85.5 C 198.5,135.167 198.5,184.833 198.5,234.5C 177.833,234.5 157.167,234.5 136.5,234.5C 116.326,234.83 96.3264,234.497 76.5,233.5C 116.833,233.5 157.167,233.5 197.5,233.5C 197.168,183.997 197.501,134.664 198.5,85.5 Z"/></g>
<g><path style="opacity:1" fill="#72aa41" d="M 278.5,101.5 C 279.499,145.33 279.832,189.33 279.5,233.5C 311.5,233.5 343.5,233.5 375.5,233.5C 343.338,234.498 311.004,234.832 278.5,234.5C 278.5,190.167 278.5,145.833 278.5,101.5 Z"/></g>
<g><path style="opacity:0.998" fill="#804111" d="M 375.5,233.5 C 387.833,233.5 400.167,233.5 412.5,233.5C 412.5,272.833 412.5,312.167 412.5,351.5C 395.83,351.333 379.163,351.5 362.5,352C 344.434,357.951 336.268,370.451 338,389.5C 341.249,401.083 348.415,409.25 359.5,414C 377.098,415.459 394.764,415.959 412.5,415.5C 412.5,447.5 412.5,479.5 412.5,511.5C 351.167,511.5 289.833,511.5 228.5,511.5C 228.5,419.167 228.5,326.833 228.5,234.5C 245.167,234.5 261.833,234.5 278.5,234.5C 311.004,234.832 343.338,234.498 375.5,233.5 Z"/></g>
<g><path style="opacity:1" fill="#9c4f14" d="M 136.5,234.5 C 157.167,234.5 177.833,234.5 198.5,234.5C 208.5,234.5 218.5,234.5 228.5,234.5C 228.5,326.833 228.5,419.167 228.5,511.5C 197.833,511.5 167.167,511.5 136.5,511.5C 136.5,419.167 136.5,326.833 136.5,234.5 Z"/></g>
<g><path style="opacity:1" fill="#feb454" d="M 412.5,351.5 C 430.5,351.5 448.5,351.5 466.5,351.5C 466.5,372.833 466.5,394.167 466.5,415.5C 448.5,415.5 430.5,415.5 412.5,415.5C 394.764,415.959 377.098,415.459 359.5,414C 348.415,409.25 341.249,401.083 338,389.5C 336.268,370.451 344.434,357.951 362.5,352C 379.163,351.5 395.83,351.333 412.5,351.5 Z"/></g>
</svg>
