<svg xmlns:mydata="http://www.w3.org/2000/svg" mydata:contrastcolor="ffffff" mydata:template="Contrast" mydata:presentation="2.5" mydata:layouttype="undefined" mydata:specialfontid="undefined" mydata:id1="583" mydata:id2="254" mydata:companyname="STAYSSAFY" mydata:companytagline="Have a savvy trip!" version="1.1" xmlns="http://www.w3.org/2000/svg" xmlns:xlink="http://www.w3.org/1999/xlink" viewBox="0 0 550 470" style="height: 391px;"><g fill="#000000" fill-rule="none" stroke="none" stroke-width="1" stroke-linecap="butt" stroke-linejoin="miter" stroke-miterlimit="10" stroke-dasharray="" stroke-dashoffset="0" font-family="none" font-weight="none" font-size="none" text-anchor="none" style="mix-blend-mode: normal"><g data-paper-data="{&quot;isGlobalGroup&quot;:true,&quot;bounds&quot;:{&quot;x&quot;:64.99999999999999,&quot;y&quot;:182.8413166571267,&quot;width&quot;:420,&quot;height&quot;:104.31736668574666}}"><g data-paper-data="{&quot;isSecondaryText&quot;:true}" fill-rule="nonzero" id="element-id-67089"><path d="M208.92565,261.69054h1.90405v14.3425h-1.90405v-6.47792h-7.22299v6.47792h-1.88336v-14.3425h1.88336v6.37444h7.22299z" data-paper-data="{&quot;glyphName&quot;:&quot;H&quot;,&quot;glyphIndex&quot;:0,&quot;firstGlyphOfWord&quot;:true,&quot;word&quot;:1}" fill="#000000" id="element-id-42988"></path><path d="M228.13867,276.03303l-1.1176,-3.14583h-6.37444l-1.1176,3.14583h-1.92475l5.21545,-14.3425h2.06962l5.19476,14.3425zM221.18473,271.39708h5.29824l-2.64912,-7.40926z" data-paper-data="{&quot;glyphName&quot;:&quot;A&quot;,&quot;glyphIndex&quot;:1,&quot;word&quot;:1}" fill="#000000" id="element-id-28310"></path><path d="M241.32908,276.03303l-5.5259,-14.3425h2.00754l4.51178,12.33496l4.55317,-12.33496h2.00754l-5.5259,14.3425z" data-paper-data="{&quot;glyphName&quot;:&quot;V&quot;,&quot;glyphIndex&quot;:2,&quot;word&quot;:1}" fill="#000000" id="element-id-84574"></path><path d="M262.83937,261.69054v1.49013h-5.71216v4.88431h5.09128v1.46943h-5.09128v5.00849h5.71216v1.49013h-7.59552v-14.3425z" data-paper-data="{&quot;glyphName&quot;:&quot;E&quot;,&quot;glyphIndex&quot;:3,&quot;lastGlyphOfWord&quot;:true,&quot;word&quot;:1}" fill="#000000" id="element-id-36351"></path><path d="M290.42057,276.03303l-1.1176,-3.14583h-6.37444l-1.1176,3.14583h-1.92475l5.21545,-14.3425h2.06962l5.19476,14.3425zM283.46663,271.39708h5.29824l-2.64912,-7.40926z" data-paper-data="{&quot;glyphName&quot;:&quot;A&quot;,&quot;glyphIndex&quot;:4,&quot;firstGlyphOfWord&quot;:true,&quot;lastGlyphOfWord&quot;:true,&quot;word&quot;:2}" fill="#000000" id="element-id-55417"></path><path d="M311.1927,265.51934c0,0.5243 0.14487,0.95893 0.43462,1.30386c0.28975,0.34494 0.66228,0.60019 1.1176,0.76576c0.45532,0.16557 0.96238,0.31044 1.52117,0.43462c0.5588,0.12418 1.1176,0.2656 1.6764,0.42427c0.5588,0.15867 1.06586,0.36218 1.52117,0.61054c0.45532,0.24835 0.82785,0.62089 1.1176,1.1176c0.28975,0.49671 0.43462,1.1107 0.43462,1.84197c0,1.1176 -0.42772,2.09032 -1.28317,2.91817c-0.85544,0.82785 -2.01099,1.24177 -3.46662,1.24177c-1.45564,0 -2.63877,-0.33459 -3.54941,-1.00377c-0.91063,-0.66918 -1.36595,-1.57636 -1.36595,-2.72156h2.00754c0.05519,0.64848 0.31389,1.17279 0.77611,1.57291c0.46222,0.40013 1.14864,0.60019 2.05928,0.60019c0.91063,0 1.635,-0.23456 2.17311,-0.70367c0.5381,-0.46911 0.80715,-1.01757 0.80715,-1.64535c0,-0.62779 -0.14487,-1.1107 -0.43462,-1.44874c-0.28975,-0.33804 -0.66228,-0.58984 -1.1176,-0.75541c-0.45532,-0.16557 -0.96238,-0.30699 -1.52117,-0.42427c-0.5588,-0.11728 -1.1176,-0.2587 -1.6764,-0.42427c-0.5588,-0.16557 -1.06586,-0.37598 -1.52117,-0.63124c-0.45532,-0.25525 -0.82785,-0.63468 -1.1176,-1.13829c-0.28975,-0.50361 -0.43462,-1.12795 -0.43462,-1.87301c0,-1.21418 0.43117,-2.19035 1.29352,-2.92852c0.86234,-0.73817 1.98684,-1.10725 3.37349,-1.10725c1.38665,0 2.49045,0.32079 3.3114,0.96238c0.82095,0.64158 1.29352,1.52807 1.41769,2.65947h-2.09032c-0.05519,-0.5657 -0.32079,-1.04861 -0.79681,-1.44874c-0.47601,-0.40013 -1.1176,-0.60019 -1.92475,-0.60019c-0.80715,0 -1.46598,0.20351 -1.97649,0.61054c-0.51051,0.40703 -0.76576,1.00377 -0.76576,1.79023z" data-paper-data="{&quot;glyphName&quot;:&quot;S&quot;,&quot;glyphIndex&quot;:5,&quot;firstGlyphOfWord&quot;:true,&quot;word&quot;:3}" fill="#000000" id="element-id-4108"></path><path d="M336.0144,276.03303l-1.1176,-3.14583h-6.37444l-1.1176,3.14583h-1.92475l5.21545,-14.3425h2.06962l5.19476,14.3425zM329.06046,271.39708h5.29824l-2.64912,-7.40926z" data-paper-data="{&quot;glyphName&quot;:&quot;A&quot;,&quot;glyphIndex&quot;:6,&quot;word&quot;:3}" fill="#000000" id="element-id-99388"></path><path d="M349.2048,276.03303l-5.5259,-14.3425h2.00754l4.51178,12.33496l4.55317,-12.33496h2.00754l-5.5259,14.3425z" data-paper-data="{&quot;glyphName&quot;:&quot;V&quot;,&quot;glyphIndex&quot;:7,&quot;word&quot;:3}" fill="#000000" id="element-id-2146"></path><path d="M367.58997,276.03303l-5.5259,-14.3425h2.00754l4.51178,12.33496l4.55317,-12.33496h2.00754l-5.5259,14.3425z" data-paper-data="{&quot;glyphName&quot;:&quot;V&quot;,&quot;glyphIndex&quot;:8,&quot;word&quot;:3}" fill="#000000" id="element-id-64161"></path><path d="M386.82368,276.03303h-1.88336v-5.42242l-4.67735,-8.92008h2.06962l3.53906,7.1816l3.51836,-7.1816h2.09032l-4.65666,8.92008z" data-paper-data="{&quot;glyphName&quot;:&quot;Y&quot;,&quot;glyphIndex&quot;:9,&quot;lastGlyphOfWord&quot;:true,&quot;word&quot;:3}" fill="#000000" id="element-id-82753"></path><path d="M407.53372,263.20136v-1.51083h9.45818v1.51083h-3.78741v12.83167h-1.88336v-12.83167z" data-paper-data="{&quot;glyphName&quot;:&quot;T&quot;,&quot;glyphIndex&quot;:10,&quot;firstGlyphOfWord&quot;:true,&quot;word&quot;:4}" fill="#000000" id="element-id-20826"></path><path d="M425.67053,270.11391v5.91913h-1.88336v-14.3425h4.65666c1.61431,0 2.84573,0.39323 3.69428,1.17969c0.84855,0.78646 1.27282,1.74883 1.27282,2.88713c0,1.13829 -0.31044,2.08687 -0.93133,2.84573c-0.62089,0.75886 -1.55222,1.23488 -2.79399,1.42804l3.95298,6.00191h-2.35937l-3.76672,-5.91913zM425.67053,263.20136v5.42242h2.7733c1.03481,0 1.80402,-0.23801 2.30763,-0.71402c0.50361,-0.47601 0.75541,-1.14174 0.75541,-1.99719c0,-1.80747 -1.02101,-2.71121 -3.06304,-2.71121z" data-paper-data="{&quot;glyphName&quot;:&quot;R&quot;,&quot;glyphIndex&quot;:11,&quot;word&quot;:4}" fill="#000000" id="element-id-10876"></path><path d="M440.86847,276.03303v-14.3425h1.88336v14.3425z" data-paper-data="{&quot;glyphName&quot;:&quot;I&quot;,&quot;glyphIndex&quot;:12,&quot;word&quot;:4}" fill="#000000" id="element-id-33023"></path><path d="M454.82464,261.69054c1.61431,0 2.84573,0.39323 3.69428,1.17969c0.84855,0.78646 1.27282,1.79367 1.27282,3.02165c0,1.22798 -0.41048,2.23864 -1.23143,3.032c-0.82095,0.79336 -2.06618,1.19003 -3.73567,1.19003h-2.7733v5.91913h-1.88336v-14.3425zM452.05134,268.62378h2.7733c1.03481,0 1.80402,-0.23801 2.30763,-0.71402c0.50361,-0.47601 0.75541,-1.14174 0.75541,-1.99719c0,-1.80747 -1.02101,-2.71121 -3.06304,-2.71121h-2.7733z" data-paper-data="{&quot;glyphName&quot;:&quot;P&quot;,&quot;glyphIndex&quot;:13,&quot;word&quot;:4}" fill="#000000" id="element-id-44637"></path><path d="M470.4986,274.8223c0,0 0,0.08451 0,0.25353c0,0.16902 -0.11728,0.37081 -0.35184,0.60537c-0.23456,0.23456 -0.52086,0.35184 -0.85889,0.35184c-0.33804,0 -0.62434,-0.11728 -0.85889,-0.35184c-0.23456,-0.23456 -0.35184,-0.52086 -0.35184,-0.85889c0,-0.33804 0.11728,-0.62434 0.35184,-0.85889c0.23456,-0.23456 0.52086,-0.35184 0.85889,-0.35184c0.33804,0 0.62434,0.11728 0.85889,0.35184c0.23456,0.23456 0.35184,0.52086 0.35184,0.85889zM468.47036,271.74891l-0.22766,-11.19667h1.96614l-0.20696,11.19667z" data-paper-data="{&quot;glyphName&quot;:&quot;!&quot;,&quot;glyphIndex&quot;:14,&quot;lastGlyphOfWord&quot;:true,&quot;word&quot;:4}" fill="#000000" id="element-id-36414"></path></g><g data-paper-data="{&quot;isPrimaryText&quot;:true}" id="element-id-96699"><path d="M196.86551,241.69345c1.73029,-1.73029 4.03734,-3.70776 5.85003,-5.19087c0.74155,-0.74155 1.73029,-0.49437 2.30705,0.32958l0.90634,1.6479c0.32958,0.57676 0.90634,1.31832 0.90634,1.48311c0.57676,0.98874 1.5655,1.48311 2.63663,1.81268c0.41197,0.08239 0.74155,0.08239 1.07113,-0.08239c2.38945,-1.15353 3.37819,-3.37819 3.37819,-5.35566c0,-1.15353 -0.41197,-2.38945 -0.98874,-3.2134c-0.82395,-1.15353 -1.73029,-2.14226 -2.63663,-3.04861h0.08239l-2.63663,-2.47184l-2.05987,-1.97747l-1.73029,-1.81268c-1.40071,-1.40071 -2.80142,-2.71903 -4.03734,-4.28453c-2.05987,-2.80142 -3.2134,-6.42679 -3.2134,-9.88737c0,-3.04861 0.82395,-6.17961 2.38945,-8.73385c2.80142,-4.7789 7.58032,-7.08595 12.27682,-7.08595c5.27326,0 10.54653,2.96621 13.18316,8.56906c0.24718,0.57676 0.08239,1.40071 -0.32958,1.81268l-5.93242,5.02608c-0.82395,0.74155 -1.97747,0.49437 -2.47184,-0.41197l-0.74155,-1.40071l-0.82395,-1.5655l-0.74155,-0.74155c-0.65916,-0.65916 -1.40071,-0.98874 -2.05987,-0.98874c-0.57676,0 -1.31832,0.41197 -2.05987,0.90634c-1.31832,1.07113 -2.05987,2.96621 -2.05987,4.7789c0,1.15353 0.41197,2.38945 0.90634,3.2134c0.74155,0.98874 1.73029,1.97747 2.47184,2.80142l2.63663,2.55424c1.81268,1.73029 3.62537,3.37819 5.35566,5.19087v-0.08239c3.04861,2.96621 5.43805,6.42679 5.76763,10.87611c0.49437,8.07469 -3.131,14.41908 -11.20569,17.46769c-0.90634,0.32958 -2.05987,0.57676 -2.96621,0.57676c-1.31832,0 -2.55424,-0.24718 -3.87255,-0.65916c-4.53171,-1.23592 -7.41553,-4.20213 -9.80498,-8.07469zM197.93664,242.76458c2.22466,3.62537 4.86129,6.3444 8.98103,7.49792c1.89508,0.49437 3.95495,0.90634 5.85003,0.08239c7.41553,-2.71903 10.54653,-8.48666 10.13456,-15.90219c-0.32958,-3.87255 -2.47184,-7.08595 -5.35566,-9.80498c-2.55424,-2.71903 -5.27326,-5.19087 -7.9099,-7.74511c-0.98874,-0.82395 -1.81268,-1.89508 -2.63663,-2.96621c-1.97747,-2.71903 -1.5655,-7.8275 1.48311,-10.13456c2.14226,-1.6479 4.11974,-1.73029 6.09721,0.24718c0.41197,0.41197 0.82395,0.82395 1.07113,1.07113c0.57676,1.23592 1.23592,2.22466 1.6479,2.96621l5.85003,-5.02608c-4.44932,-9.4754 -17.3853,-10.38174 -22.74096,-1.31832c-3.04861,4.94369 -2.96621,12.02964 0.82395,16.89093c1.6479,2.22466 3.70776,3.95495 5.60284,5.93242c1.48311,1.48311 3.131,2.80142 4.61411,4.36692c0.98874,0.90634 1.97747,2.05987 2.80142,3.29579c1.97747,2.88382 1.73029,8.56906 -2.88382,10.79371c-0.74155,0.41197 -1.48311,0.49437 -2.30705,0.24718c-1.40071,-0.41197 -2.55424,-1.15353 -3.37819,-2.30705c-0.74155,-1.07113 -1.31832,-2.30705 -1.97747,-3.29579c-0.16479,0.16479 -0.32958,0.24718 -0.49437,0.41197c-1.81268,1.48311 -3.46058,3.04861 -5.27326,4.6965z" data-paper-data="{&quot;glyphName&quot;:&quot;S&quot;,&quot;glyphIndex&quot;:0,&quot;firstGlyphOfWord&quot;:true,&quot;word&quot;:1}" fill-rule="nonzero" fill="#000000" id="element-id-22749"></path><g data-paper-data="{&quot;glyphName&quot;:&quot;&quot;,&quot;glyphIndex&quot;:1,&quot;word&quot;:1}" fill-rule="evenodd" id="element-id-27754"><path d="M228.91707,195.96436c-0.08239,-0.98874 0.65916,-1.6479 1.5655,-1.6479h44.90515c0.98874,0 1.6479,0.65916 1.5655,1.6479c-0.05424,0.81866 -0.03708,1.78192 -0.01854,2.77004v0.00027c0.00893,0.50357 0.01854,1.01359 0.01854,1.51421v2.96621c0,0.82395 -0.65916,1.5655 -1.5655,1.5655h-26.44872v45.6467c0,0.82395 -0.65916,1.5655 -1.48311,1.5655h-7.49792c-0.90634,0 -1.5655,-0.74155 -1.5655,-1.5655v-45.6467h-7.9099c-0.82395,0 -1.5655,-0.74155 -1.5655,-1.5655v-2.96621c0,-0.50062 0.00941,-1.01064 0.01868,-1.51421c0.0182,-0.98819 0.03591,-1.95159 -0.01868,-2.77032zM275.38772,195.88196h-44.90515c0.04291,1.20235 0.01874,2.85223 -0.00261,4.30842c-0.01964,1.33775 -0.03687,2.5118 0.00261,3.02471h9.4754v47.2122h7.49792v-47.2122h27.93183c0.03914,-0.51263 0.02197,-1.68573 0.00275,-3.02272v-0.00069v-0.00027v-0.00069v-0.00021c-0.02129,-1.45612 -0.046,-3.10615 -0.00275,-4.30856z" fill="#000000" id="element-id-67337"></path><path d="M252.31718,251.9928c-0.98874,0 -1.73029,-0.74155 -1.5655,-1.81268l7.33313,-42.4333c0.16479,-0.65916 0.90634,-1.31832 1.5655,-1.31832h9.80498c0.74155,0 1.48311,0.65916 1.5655,1.31832l0.74155,4.7789c1.73029,12.6064 3.54297,24.96561 5.27326,37.48962c0.08239,0.82395 -0.41197,1.5655 -1.15353,1.73029c-0.90634,0.24718 -2.63663,0.32958 -4.53171,0.32958c-1.31832,0 -2.63663,-0.08239 -3.46058,-0.16479c-0.65916,-0.08239 -1.31832,-0.65916 -1.40071,-1.31832l-0.74155,-5.68524h-3.46058l-0.90634,5.76763c-0.16479,0.65916 -0.90634,1.31832 -1.5655,1.31832zM269.4553,207.99399h-9.80498l-7.33313,42.4333h7.49792l1.15353,-7.08595h6.17961l0.90634,7.00355c1.81268,0.24718 6.42679,0.16479 7.41553,-0.08239c-1.97747,-14.0895 -3.95495,-28.09661 -6.01482,-42.26851z" fill="#000000" id="element-id-67575"></path><path d="M264.26443,224.47294c0.82395,3.79016 1.23592,7.66271 1.89508,11.53527h-3.95495zM264.09964,233.61876c0,0.24718 -0.08239,0.49437 -0.08239,0.82395h0.24718z" fill="#000000" id="element-id-86422"></path></g><g data-paper-data="{&quot;glyphName&quot;:&quot;Y&quot;,&quot;glyphIndex&quot;:2,&quot;word&quot;:1}" fill-rule="evenodd" id="element-id-60678"><path d="M290.87793,194.39886c0.49437,0 1.15353,0.32958 1.40071,0.82395l8.73385,18.78601c2.63663,-5.76763 6.92116,-14.91345 8.81624,-18.78601c0.24718,-0.49437 0.90634,-0.82395 1.40071,-0.82395h8.15708c0.82395,0 1.48311,0.65916 1.48311,1.5655l-0.08239,0.65916l-0.65916,1.48311l-6.67398,14.50148c-2.63663,5.43805 -5.10848,10.87611 -6.67398,14.33669c-0.32958,0.57676 -0.41197,1.15353 -0.41197,1.89508v21.58743c0,0.82395 -0.74155,1.5655 -1.5655,1.5655h-7.41553c-0.90634,0 -1.5655,-0.74155 -1.5655,-1.5655c0,-0.24718 -0.08239,-0.57676 -0.08239,-0.82395v-0.90634l0.16479,-19.60995c0,-0.65916 -0.08239,-1.31832 -0.41197,-1.89508c-0.16479,-0.24718 -0.32958,-0.49437 -0.41197,-0.74155l-1.15353,-2.63663v0.16479c-0.49437,-0.82395 -0.82395,-1.73029 -1.23592,-2.80142l0.08239,0.08239l-10.87611,-23.15293l-0.49437,-1.40071l-0.16479,-0.74155c0,-0.90634 0.65916,-1.5655 1.5655,-1.5655zM311.22944,195.96436c-2.14226,4.53171 -7.9099,16.89093 -10.13456,21.75222l-0.32958,-0.57676c-2.30705,-5.10848 -7.74511,-16.72614 -9.88737,-21.17545h-8.07469c0.24718,0.57676 0.32958,1.07113 0.57676,1.5655l10.79371,23.15293c0.32958,0.82395 0.65916,1.6479 1.15353,2.55424l1.23592,2.71903c0,0.08239 0.08239,0.24718 0.16479,0.32958v0.08239h0.08239c0.49437,0.82395 0.65916,1.73029 0.65916,2.71903l-0.16479,19.60995c0,0.57676 0.08239,1.15353 0.08239,1.73029h7.41553c0,-0.57676 0.08239,-1.15353 0.08239,-1.73029v-19.85714c0,-0.90634 0.08239,-1.81268 0.49437,-2.55424c3.2134,-7.00355 10.13456,-21.75222 13.34795,-28.75577c0.24718,-0.49437 0.41197,-0.98874 0.65916,-1.5655z" fill="#000000" id="element-id-62224"></path><path d="M301.01249,217.71657c0,0 -0.08239,0 -0.08239,-0.08239z" fill="#000000" id="element-id-77164"></path></g><path d="M320.70484,241.69345c1.73029,-1.73029 4.03734,-3.70776 5.85003,-5.19087c0.74155,-0.74155 1.73029,-0.49437 2.30705,0.32958l0.90634,1.6479c0.32958,0.57676 0.90634,1.31832 0.90634,1.48311c0.57676,0.98874 1.5655,1.48311 2.63663,1.81268c0.41197,0.08239 0.74155,0.08239 1.07113,-0.08239c2.38945,-1.15353 3.37819,-3.37819 3.37819,-5.35566c0,-1.15353 -0.41197,-2.38945 -0.98874,-3.2134c-0.82395,-1.15353 -1.73029,-2.14226 -2.63663,-3.04861h0.08239l-2.63663,-2.47184l-2.05987,-1.97747l-1.73029,-1.81268c-1.40071,-1.40071 -2.80142,-2.71903 -4.03734,-4.28453c-2.05987,-2.80142 -3.2134,-6.42679 -3.2134,-9.88737c0,-3.04861 0.82395,-6.17961 2.38945,-8.73385c2.80142,-4.7789 7.58032,-7.08595 12.27682,-7.08595c5.27326,0 10.54653,2.96621 13.18316,8.56906c0.24718,0.57676 0.08239,1.40071 -0.32958,1.81268l-5.93242,5.02608c-0.82395,0.74155 -1.97747,0.49437 -2.47184,-0.41197l-0.74155,-1.40071l-0.82395,-1.5655l-0.74155,-0.74155c-0.65916,-0.65916 -1.40071,-0.98874 -2.05987,-0.98874c-0.57676,0 -1.31832,0.41197 -2.05987,0.90634c-1.31832,1.07113 -2.05987,2.96621 -2.05987,4.7789c0,1.15353 0.41197,2.38945 0.90634,3.2134c0.74155,0.98874 1.73029,1.97747 2.47184,2.80142l2.63663,2.55424c1.81268,1.73029 3.62537,3.37819 5.35566,5.19087v-0.08239c3.04861,2.96621 5.43805,6.42679 5.76763,10.87611c0.49437,8.07469 -3.131,14.41908 -11.20569,17.46769c-0.90634,0.32958 -2.05987,0.57676 -2.96621,0.57676c-1.31832,0 -2.55424,-0.24718 -3.87255,-0.65916c-4.53171,-1.23592 -7.41553,-4.20213 -9.80498,-8.07469zM321.77597,242.76458c2.22466,3.62537 4.86129,6.3444 8.98103,7.49792c1.89508,0.49437 3.95495,0.90634 5.85003,0.08239c7.41553,-2.71903 10.54653,-8.48666 10.13456,-15.90219c-0.32958,-3.87255 -2.47184,-7.08595 -5.35566,-9.80498c-2.55424,-2.71903 -5.27326,-5.19087 -7.9099,-7.74511c-0.98874,-0.82395 -1.81268,-1.89508 -2.63663,-2.96621c-1.97747,-2.71903 -1.5655,-7.8275 1.48311,-10.13456c2.14226,-1.6479 4.11974,-1.73029 6.09721,0.24718c0.41197,0.41197 0.82395,0.82395 1.07113,1.07113c0.57676,1.23592 1.23592,2.22466 1.6479,2.96621l5.85003,-5.02608c-4.44932,-9.4754 -17.3853,-10.38174 -22.74096,-1.31832c-3.04861,4.94369 -2.96621,12.02964 0.82395,16.89093c1.6479,2.22466 3.70776,3.95495 5.60284,5.93242c1.48311,1.48311 3.131,2.80142 4.61411,4.36692c0.98874,0.90634 1.97747,2.05987 2.80142,3.29579c1.97747,2.88382 1.73029,8.56906 -2.88382,10.79371c-0.74155,0.41197 -1.48311,0.49437 -2.30705,0.24718c-1.40071,-0.41197 -2.55424,-1.15353 -3.37819,-2.30705c-0.74155,-1.07113 -1.31832,-2.30705 -1.97747,-3.29579c-0.16479,0.16479 -0.32958,0.24718 -0.49437,0.41197c-1.81268,1.48311 -3.46058,3.04861 -5.27326,4.6965z" data-paper-data="{&quot;glyphName&quot;:&quot;S&quot;,&quot;glyphIndex&quot;:3,&quot;word&quot;:1}" fill-rule="nonzero" fill="#000000" id="element-id-98507"></path><path d="M351.02611,241.69345c1.73029,-1.73029 4.03734,-3.70776 5.85003,-5.19087c0.74155,-0.74155 1.73029,-0.49437 2.30705,0.32958l0.90634,1.6479c0.32958,0.57676 0.90634,1.31832 0.90634,1.48311c0.57676,0.98874 1.5655,1.48311 2.63663,1.81268c0.41197,0.08239 0.74155,0.08239 1.07113,-0.08239c2.38945,-1.15353 3.37819,-3.37819 3.37819,-5.35566c0,-1.15353 -0.41197,-2.38945 -0.98874,-3.2134c-0.82395,-1.15353 -1.73029,-2.14226 -2.63663,-3.04861h0.08239l-2.63663,-2.47184l-2.05987,-1.97747l-1.73029,-1.81268c-1.40071,-1.40071 -2.80142,-2.71903 -4.03734,-4.28453c-2.05987,-2.80142 -3.2134,-6.42679 -3.2134,-9.88737c0,-3.04861 0.82395,-6.17961 2.38945,-8.73385c2.80142,-4.7789 7.58032,-7.08595 12.27682,-7.08595c5.27326,0 10.54653,2.96621 13.18316,8.56906c0.24718,0.57676 0.08239,1.40071 -0.32958,1.81268l-5.93242,5.02608c-0.82395,0.74155 -1.97747,0.49437 -2.47184,-0.41197l-0.74155,-1.40071l-0.82395,-1.5655l-0.74155,-0.74155c-0.65916,-0.65916 -1.40071,-0.98874 -2.05987,-0.98874c-0.57676,0 -1.31832,0.41197 -2.05987,0.90634c-1.31832,1.07113 -2.05987,2.96621 -2.05987,4.7789c0,1.15353 0.41197,2.38945 0.90634,3.2134c0.74155,0.98874 1.73029,1.97747 2.47184,2.80142l2.63663,2.55424c1.81268,1.73029 3.62537,3.37819 5.35566,5.19087v-0.08239c3.04861,2.96621 5.43805,6.42679 5.76763,10.87611c0.49437,8.07469 -3.131,14.41908 -11.20569,17.46769c-0.90634,0.32958 -2.05987,0.57676 -2.96621,0.57676c-1.31832,0 -2.55424,-0.24718 -3.87255,-0.65916c-4.53171,-1.23592 -7.41553,-4.20213 -9.80498,-8.07469zM352.09724,242.76458c2.22466,3.62537 4.86129,6.3444 8.98103,7.49792c1.89508,0.49437 3.95495,0.90634 5.85003,0.08239c7.41553,-2.71903 10.54653,-8.48666 10.13456,-15.90219c-0.32958,-3.87255 -2.47184,-7.08595 -5.35566,-9.80498c-2.55424,-2.71903 -5.27326,-5.19087 -7.9099,-7.74511c-0.98874,-0.82395 -1.81268,-1.89508 -2.63663,-2.96621c-1.97747,-2.71903 -1.5655,-7.8275 1.48311,-10.13456c2.14226,-1.6479 4.11974,-1.73029 6.09721,0.24718c0.41197,0.41197 0.82395,0.82395 1.07113,1.07113c0.57676,1.23592 1.23592,2.22466 1.6479,2.96621l5.85003,-5.02608c-4.44932,-9.4754 -17.3853,-10.38174 -22.74096,-1.31832c-3.04861,4.94369 -2.96621,12.02964 0.82395,16.89093c1.6479,2.22466 3.70776,3.95495 5.60284,5.93242c1.48311,1.48311 3.131,2.80142 4.61411,4.36692c0.98874,0.90634 1.97747,2.05987 2.80142,3.29579c1.97747,2.88382 1.73029,8.56906 -2.88382,10.79371c-0.74155,0.41197 -1.48311,0.49437 -2.30705,0.24718c-1.40071,-0.41197 -2.55424,-1.15353 -3.37819,-2.30705c-0.74155,-1.07113 -1.31832,-2.30705 -1.97747,-3.29579c-0.16479,0.16479 -0.32958,0.24718 -0.49437,0.41197c-1.81268,1.48311 -3.46058,3.04861 -5.27326,4.6965z" data-paper-data="{&quot;glyphName&quot;:&quot;S&quot;,&quot;glyphIndex&quot;:4,&quot;word&quot;:1}" fill-rule="nonzero" fill="#000000" id="element-id-28638"></path><g data-paper-data="{&quot;glyphName&quot;:&quot;A&quot;,&quot;glyphIndex&quot;:5,&quot;word&quot;:1}" fill-rule="evenodd" id="element-id-25519"><path d="M410.02076,249.93293c0.16479,0.98874 -0.49437,1.81268 -1.5655,1.81268h-7.41553c-0.74155,0 -1.48311,-0.57676 -1.5655,-1.31832l-0.74155,-4.44932c-0.59187,-0.05383 -1.28948,-0.03732 -2.04682,-0.01941c-0.40167,0.00951 -0.82051,0.01941 -1.24897,0.01941c-1.81268,0 -3.29579,0 -4.28453,0.08239l-0.82395,4.44932c-0.16479,0.74155 -0.82395,1.31832 -1.5655,1.31832h-7.33313c-0.65916,0 -1.40071,-0.57676 -1.5655,-1.23592c-0.24718,-1.15353 8.98103,-53.88618 9.4754,-55.28689c0.16479,-0.57676 0.82395,-1.07113 1.48311,-1.07113h9.96977c0.65916,0 1.48311,0.57676 1.5655,1.31832zM390.82278,195.79957c-0.49437,1.40071 -9.64019,53.30941 -9.393,54.46294h7.33313c0.41197,-1.89508 0.74155,-3.70776 0.98874,-5.52045c1.15353,-0.41197 7.8275,-0.49437 10.29935,-0.16479c0.32958,1.81268 0.65916,3.70776 0.98874,5.60284h7.41553c-2.55424,-18.20924 -5.10848,-36.33609 -7.66271,-54.38054z" fill="#000000" id="element-id-92025"></path><path d="M395.51929,212.5257c1.23592,8.15708 2.38945,16.14937 3.54297,24.30646h-7.99229c1.40071,-8.07469 2.80142,-16.14937 4.28453,-24.22406c0,-0.08239 0.08239,-0.08239 0.16479,-0.08239zM395.3545,221.91871l-2.38945,13.43035h4.28453z" fill="#000000" id="element-id-48763"></path></g><path d="M424.76943,204.86299h3.04861c4.20213,0 8.32187,-0.08239 12.68879,-0.16479c0.82395,0 1.5655,-0.74155 1.5655,-1.5655v-7.00355c0,-0.65916 -0.65916,-1.40071 -1.40071,-1.48311c-0.90634,-0.16479 -7.74511,-0.24718 -14.00711,-0.24718c-5.52045,0 -10.54653,0.08239 -10.9585,0.16479c-0.65916,0.08239 -1.23592,0.65916 -1.31832,1.31832c-0.16479,1.15353 -0.16479,9.06342 -0.16479,18.78601c0,15.32543 0.16479,34.85299 0.32958,35.59454c0.16479,0.65916 0.90634,1.15353 1.48311,1.15353h7.25074c0.90634,0 1.5655,-0.65916 1.5655,-1.5655v-1.5655c0,-4.94369 0,-9.96977 -0.08239,-14.83106c-0.08239,-4.03734 5.76763,-6.50919 10.29935,-6.42679c0.90634,0 1.5655,-0.65916 1.5655,-1.5655v-7.08595c0,-0.74155 -0.65916,-1.48311 -1.48311,-1.5655c-3.70776,-0.32958 -7.16834,0.41197 -10.38174,1.73029zM423.28632,203.29749c0,6.01482 0,11.78245 0,17.71487c3.70776,-1.81268 7.49792,-2.96621 11.78245,-2.63663c0,2.47184 0,4.6965 0,7.08595c-5.27326,-0.08239 -12.02964,2.88382 -11.78245,7.99229c0,4.86129 0,9.88737 0,14.83106c0,0.49437 0,0.98874 0,1.5655c-2.47184,0 -4.86129,0 -7.25074,0c-0.24718,-0.98874 -0.41197,-50.75518 -0.08239,-53.72139c0.98874,-0.24718 22.82335,-0.24718 24.55364,0c0,2.30705 0,4.53171 0,7.00355c-5.93242,0.16479 -11.45287,0.24718 -17.22051,0.16479z" data-paper-data="{&quot;glyphName&quot;:&quot;F&quot;,&quot;glyphIndex&quot;:6,&quot;word&quot;:1}" fill-rule="nonzero" fill="#000000" id="element-id-79593"></path><g data-paper-data="{&quot;glyphName&quot;:&quot;Y&quot;,&quot;glyphIndex&quot;:7,&quot;lastGlyphOfWord&quot;:true,&quot;word&quot;:1}" fill-rule="evenodd" id="element-id-74114"><path d="M455.00831,194.39886c0.49437,0 1.15353,0.32958 1.40071,0.82395l8.73385,18.78601c2.63663,-5.76763 6.92116,-14.91345 8.81624,-18.78601c0.24718,-0.49437 0.90634,-0.82395 1.40071,-0.82395h8.15708c0.82395,0 1.48311,0.65916 1.48311,1.5655l-0.08239,0.65916l-0.65916,1.48311l-6.67398,14.50148c-2.63663,5.43805 -5.10848,10.87611 -6.67398,14.33669c-0.32958,0.57676 -0.41197,1.15353 -0.41197,1.89508v21.58743c0,0.82395 -0.74155,1.5655 -1.5655,1.5655h-7.41553c-0.90634,0 -1.5655,-0.74155 -1.5655,-1.5655c0,-0.24718 -0.08239,-0.57676 -0.08239,-0.82395v-0.90634l0.16479,-19.60995c0,-0.65916 -0.08239,-1.31832 -0.41197,-1.89508c-0.16479,-0.24718 -0.32958,-0.49437 -0.41197,-0.74155l-1.15353,-2.63663v0.16479c-0.49437,-0.82395 -0.82395,-1.73029 -1.23592,-2.80142l0.08239,0.08239l-10.87611,-23.15293l-0.49437,-1.40071l-0.16479,-0.74155c0,-0.90634 0.65916,-1.5655 1.5655,-1.5655zM475.35981,195.96436c-2.14226,4.53171 -7.9099,16.89093 -10.13456,21.75222l-0.32958,-0.57676c-2.30705,-5.10848 -7.74511,-16.72614 -9.88737,-21.17545h-8.07469c0.24718,0.57676 0.32958,1.07113 0.57676,1.5655l10.79371,23.15293c0.32958,0.82395 0.65916,1.6479 1.15353,2.55424l1.23592,2.71903c0,0.08239 0.08239,0.24718 0.16479,0.32958v0.08239h0.08239c0.49437,0.82395 0.65916,1.73029 0.65916,2.71903l-0.16479,19.60995c0,0.57676 0.08239,1.15353 0.08239,1.73029h7.41553c0,-0.57676 0.08239,-1.15353 0.08239,-1.73029v-19.85714c0,-0.90634 0.08239,-1.81268 0.49437,-2.55424c3.2134,-7.00355 10.13456,-21.75222 13.34795,-28.75577c0.24718,-0.49437 0.41197,-0.98874 0.65916,-1.5655z" fill="#000000" id="element-id-20550"></path><path d="M465.14286,217.71657c0,0 -0.08239,0 -0.08239,-0.08239z" fill="#000000" id="element-id-73373"></path></g></g><g data-paper-data="{&quot;fillRule&quot;:&quot;evenodd&quot;,&quot;fillRuleOriginal&quot;:&quot;evenodd&quot;,&quot;isIcon&quot;:true,&quot;iconStyle&quot;:&quot;standalone&quot;,&quot;selectedEffects&quot;:{&quot;container&quot;:&quot;&quot;,&quot;transformation&quot;:&quot;rotate0;translate50&quot;,&quot;pattern&quot;:&quot;&quot;},&quot;bounds&quot;:{&quot;x&quot;:64.99999999999999,&quot;y&quot;:182.8413166571267,&quot;width&quot;:107.58651750322908,&quot;height&quot;:104.31736668574666},&quot;iconType&quot;:&quot;initial&quot;,&quot;initialText&quot;:&quot;S&quot;,&quot;rawInitialId&quot;:1065,&quot;disableIconEffects&quot;:&quot;true&quot;,&quot;monogramSpecial&quot;:&quot;law&quot;,&quot;suitableAsStandaloneIcon&quot;:true}" fill-rule="evenodd" id="element-id-41561"><path d="M65,182.84132v104.31737h14.36999c-0.46149,-0.61858 -0.72097,-1.32203 -0.72097,-2.12224c0,-2.07866 1.38577,-3.55105 3.2046,-4.33055c0.51966,-0.25983 1.03933,-0.43306 1.64561,-0.60628c0.51966,-0.17322 1.12594,-0.34644 1.64561,-0.51966c0.17322,0 0.25983,-0.08661 0.43306,-0.08661c0.17322,-0.08661 0.25983,-0.17322 0.51966,-0.17322c1.03933,0 2.3385,0.95272 2.3385,2.07866c0,0.60628 -0.34644,1.03933 -0.69289,1.29917c-0.17322,0.17322 -0.43306,0.25983 -0.60628,0.34644c-0.17322,0.08661 -0.43306,0.17322 -0.60628,0.25983c-1.81883,0.69289 -2.85816,0.69289 -4.50377,1.21255h-0.17322c0.34644,0.17322 0.51966,0.25983 0.60628,0.25983c4.59038,1.73222 9.78704,1.81883 14.72386,1.81883c12.03892,0 40.01425,-4.15733 50.49418,-9.5272l0.08661,-0.34644c-7.44854,-5.5431 -17.84185,-6.92887 -26.84939,-8.05482l-7.79498,-0.7795c-1.47239,-0.17322 -4.93682,-0.43306 -7.96821,-1.21255c-2.94477,-0.7795 -5.80293,-2.16528 -5.80293,-4.67699v-0.08661l0.08661,-0.08661c0,0 0.25983,-0.43306 0.51966,-0.7795c0.08661,-0.08661 0.34644,-0.60628 0.43306,-0.60628c0.51966,-0.60628 4.85021,-2.68494 5.5431,-3.03138c11.60586,-5.36988 27.54228,-8.48787 40.27409,-8.48787c3.29122,0 12.73181,0.51966 12.73181,5.11005c0,0.69289 -0.17322,1.29917 -0.43306,1.81883v0.08661l-1.03933,0.51966h-0.08661c-5.02344,-1.73222 -10.04687,-2.42511 -15.33014,-2.42511c-10.47992,0 -21.13307,1.90544 -30.74688,6.06276c-0.69289,0.34644 -1.559,0.69289 -2.3385,1.03933c-0.7795,0.34644 -1.559,0.7795 -2.07866,1.12594l-0.08661,0.08661c0.34644,0 0.43306,0 0.69289,0.08661c8.31465,0.25983 43.5653,1.99205 43.5653,14.03097c0,1.12594 -0.25983,2.16528 -0.69289,3.11799c-1.46113,3.15471 -7.54396,5.67282 -14.98766,7.57872h37.2113v-104.31737z" data-paper-data="{&quot;isPathIcon&quot;:true}" fill="#000000" id="element-id-99136"></path></g></g></g><rect data-element-id="element-id-96699" stroke-width="2" fill="transparent" class="invisible-element-box grouping-element" x="197" y="194" width="288" height="59" data-element-name="isPrimaryText"></rect><rect data-element-id="element-id-41561" stroke-width="2" fill="transparent" class="invisible-element-box grouping-element" x="65" y="183" width="108" height="104" data-element-name="isIcon"></rect><rect data-element-id="element-id-99136" stroke-width="2" fill="transparent" class="invisible-element-box individual-element" x="65" y="183" width="108" height="104"></rect><rect data-element-id="element-id-67089" stroke-width="2" fill="transparent" class="invisible-element-box grouping-element" x="200" y="261" width="271" height="16" data-element-name="isSecondaryText"></rect><rect data-element-id="element-id-27754" stroke-width="2" fill="transparent" class="invisible-element-box individual-element" x="229" y="194" width="48" height="58"></rect><rect data-element-id="element-id-67337" stroke-width="2" fill="transparent" class="invisible-element-box individual-element" x="229" y="194" width="48" height="58"></rect><rect data-element-id="element-id-60678" stroke-width="2" fill="transparent" class="invisible-element-box individual-element" x="281" y="194" width="40" height="58"></rect><rect data-element-id="element-id-62224" stroke-width="2" fill="transparent" class="invisible-element-box individual-element" x="281" y="194" width="40" height="58"></rect><rect data-element-id="element-id-74114" stroke-width="2" fill="transparent" class="invisible-element-box individual-element" x="445" y="194" width="40" height="58"></rect><rect data-element-id="element-id-20550" stroke-width="2" fill="transparent" class="invisible-element-box individual-element" x="445" y="194" width="40" height="58"></rect><rect data-element-id="element-id-25519" stroke-width="2" fill="transparent" class="invisible-element-box individual-element" x="380" y="194" width="30" height="58"></rect><rect data-element-id="element-id-92025" stroke-width="2" fill="transparent" class="invisible-element-box individual-element" x="380" y="194" width="30" height="58"></rect><rect data-element-id="element-id-22749" stroke-width="2" fill="transparent" class="invisible-element-box individual-element" x="197" y="194" width="28" height="59"></rect><rect data-element-id="element-id-98507" stroke-width="2" fill="transparent" class="invisible-element-box individual-element" x="320" y="194" width="28" height="59"></rect><rect data-element-id="element-id-28638" stroke-width="2" fill="transparent" class="invisible-element-box individual-element" x="351" y="194" width="28" height="59"></rect><rect data-element-id="element-id-79593" stroke-width="2" fill="transparent" class="invisible-element-box individual-element" x="414" y="194" width="28" height="57"></rect><rect data-element-id="element-id-67575" stroke-width="2" fill="transparent" class="invisible-element-box individual-element" x="251" y="206" width="26" height="46"></rect><rect data-element-id="element-id-48763" stroke-width="2" fill="transparent" class="invisible-element-box individual-element" x="391" y="213" width="8" height="24"></rect><rect data-element-id="element-id-84574" stroke-width="2" fill="transparent" class="invisible-element-box individual-element" x="236" y="262" width="13" height="14"></rect><rect data-element-id="element-id-2146" stroke-width="2" fill="transparent" class="invisible-element-box individual-element" x="344" y="262" width="13" height="14"></rect><rect data-element-id="element-id-64161" stroke-width="2" fill="transparent" class="invisible-element-box individual-element" x="362" y="262" width="13" height="14"></rect><rect data-element-id="element-id-28310" stroke-width="2" fill="transparent" class="invisible-element-box individual-element" x="218" y="262" width="12" height="14"></rect><rect data-element-id="element-id-55417" stroke-width="2" fill="transparent" class="invisible-element-box individual-element" x="280" y="262" width="12" height="14"></rect><rect data-element-id="element-id-99388" stroke-width="2" fill="transparent" class="invisible-element-box individual-element" x="325" y="262" width="12" height="14"></rect><rect data-element-id="element-id-42988" stroke-width="2" fill="transparent" class="invisible-element-box individual-element" x="200" y="262" width="11" height="14"></rect><rect data-element-id="element-id-82753" stroke-width="2" fill="transparent" class="invisible-element-box individual-element" x="380" y="262" width="11" height="14"></rect><rect data-element-id="element-id-4108" stroke-width="2" fill="transparent" class="invisible-element-box individual-element" x="309" y="262" width="10" height="15"></rect><rect data-element-id="element-id-10876" stroke-width="2" fill="transparent" class="invisible-element-box individual-element" x="424" y="262" width="10" height="14"></rect><rect data-element-id="element-id-44637" stroke-width="2" fill="transparent" class="invisible-element-box individual-element" x="450" y="262" width="10" height="14"></rect><rect data-element-id="element-id-20826" stroke-width="2" fill="transparent" class="invisible-element-box individual-element" x="408" y="262" width="9" height="14"></rect><rect data-element-id="element-id-36351" stroke-width="2" fill="transparent" class="invisible-element-box individual-element" x="255" y="262" width="8" height="14"></rect><rect data-element-id="element-id-86422" stroke-width="2" fill="transparent" class="invisible-element-box individual-element" x="262" y="224" width="4" height="12"></rect><rect data-element-id="element-id-36414" stroke-width="2" fill="transparent" class="invisible-element-box individual-element" x="468" y="261" width="2" height="15"></rect><rect data-element-id="element-id-33023" stroke-width="2" fill="transparent" class="invisible-element-box individual-element" x="441" y="262" width="2" height="14"></rect><rect data-element-id="element-id-77164" stroke-width="2" fill="transparent" class="invisible-element-box individual-element" x="301" y="218" width="0" height="0"></rect><rect data-element-id="element-id-73373" stroke-width="2" fill="transparent" class="invisible-element-box individual-element" x="465" y="218" width="0" height="0"></rect></svg>
  